<svg id="Layer_1" data-name="Layer 1" xmlns="http://www.w3.org/2000/svg" xmlns:xlink="http://www.w3.org/1999/xlink" viewBox="0 0 517 527">
  <defs>
    <clipPath id="clip-path">
      <rect x="2.6" y="2.6" width="512" height="512" fill="none"/>
    </clipPath>
  </defs>
  <title>Mizzou Zone</title>
  <g id="Art">
    <g>
      <g clip-path="url(#clip-path)">
        <g>
          <rect width="517" height="517.08" fill="#e4a710"/>
          <path id="tiger" d="M395.2,116.6c-.2,1.5-.4,3.1-.7,4.7a78.5,78.5,0,0,1-4.8,14.9c-.8,1.9-1.8,3.7-2.6,5.6a11.7,11.7,0,0,0-.9,3.2c-.2,2.3-.3,4.5-.4,6.8-.3,8.3-.4,16.6-.8,24.9s-.7,14.4-1.3,21.5a302,302,0,0,1-4.7,35.3,83.4,83.4,0,0,1-4.5,15.5,26.7,26.7,0,0,1-4.9,7.6c-8.9,9.6-19.2,17.3-30.2,24.3a150.8,150.8,0,0,1-24,12.3,58.3,58.3,0,0,1-13.1,3.9l-4,.4c0-.7-.1-1.3-.1-1.8V248.1c0-1.7,0-1.7,1.8-2.2l5.3-1.4a3.1,3.1,0,0,0,2-1.4,125.9,125.9,0,0,0,16.9-33.3,111.6,111.6,0,0,0,4.5-21.4c.9-7.2.7-14.4.6-21.7a3.7,3.7,0,0,0-.7-2,173.8,173.8,0,0,1-10.5-17.6l-15.8-30.6a3.3,3.3,0,0,0-2.3-2c-1.8-.4-1.8-.5-1.8-2.3V88.9c0-.5.1-1,.1-1.6l1.6.4,17.3,7.5c2.1,1.8,4.6,1.8,7.2,1.6l13.6-.7a4.4,4.4,0,0,0,2.7-.8l-5.2-2.1c-11.7-4.3-23.6-8.3-35.7-11.6-1.5-.4-1.6-.5-1.6-2V63.1c0-.3.1-.7.1-1.3l1.8.4c6.2,1.8,12.4,3.4,18.6,5.4,10.3,3.3,20.5,6.6,30.7,10.1A313,313,0,0,1,379,89.3a33.6,33.6,0,0,1,8.9,5.4,23.1,23.1,0,0,1,7.1,13.6,7.7,7.7,0,0,0,.2,1.5ZM325.3,250.4a7.9,7.9,0,0,0,1.3-1.2l3.4-3.6a67.5,67.5,0,0,0,15.8-27.9c1.7-6.3,3.5-12.7,4.9-19.1,2.6-11.1,4.3-22.4,5.8-33.7.1-1.2.2-2.3.3-3.7l-.9.4c-1.9,1.5-3.8,3-5.6,4.7a8,8,0,0,0-2.7,5.1,79.4,79.4,0,0,1-1.5,8.5c-2,10.5-4.6,20.8-7.6,31a165,165,0,0,1-10.6,28.2l-3.5,6.6a2.8,2.8,0,0,0-.1,2.8ZM102,527c0-.8-.1-1.4-.1-2,0-8.5,0-17-.1-25.5a2.4,2.4,0,0,1,1.7-2.6,10.5,10.5,0,0,0,2.3-1.3,1.8,1.8,0,0,1,2.3.2,18.2,18.2,0,0,1,6.4,8.8,5.8,5.8,0,0,0,.5,1.4c0,.1.1.1.3.2a10,10,0,0,0,1.5-1.4,26.5,26.5,0,0,0,6-10.4,1.8,1.8,0,0,1,1.9-1.5h1.2c8.1-.1,16.2-.6,24.2-1.4a227.5,227.5,0,0,0,23.2-3.4,127.3,127.3,0,0,0,20.7-6.5c7.1-2.9,14-6.3,20.9-9.8a205.3,205.3,0,0,0,18.4-11.2c3.6-2.4,4.6-6,5.1-10,.6-6.6-1.6-12.3-4.8-17.8a46.2,46.2,0,0,0-15.4-16,20.4,20.4,0,0,0-11.3-3.5,12.7,12.7,0,0,0-5.1,1.2c-10.2,5.1-20.9,8.8-31.8,12.2-6,1.9-12.2,3.5-18.3,5.1a100.6,100.6,0,0,1-16.4,2.9c-3.7.3-7.6.6-11.3-.3a87.5,87.5,0,0,1-8.6-3,86.6,86.6,0,0,1-11.9-5.7,2.9,2.9,0,0,1-1.7-2.8q.2-32.7.1-65.2a19.9,19.9,0,0,1,1-6,129.1,129.1,0,0,1,15.8-34.1c2.4-3.7,5.1-7.3,7.5-10.9-2.2.9-8,6-13.4,12.1a83.2,83.2,0,0,0-10.5,15.1H102a9.7,9.7,0,0,1-.1-1.7q0-46.1-.1-92.3a3.5,3.5,0,0,1,1.6-3.1,148.3,148.3,0,0,1,20.3-12c2.6-1.2,5.2-2.4,7.9-3.4a149.6,149.6,0,0,1,24.4-6.7,94.9,94.9,0,0,1,20.6-1.6,8.3,8.3,0,0,1,2.7.7l13.4,7.8c8.2,4.6,16.4,9.4,24.6,13.9s13.8,7.4,20.7,11c3.5,1.8,7.1,3.3,10.7,4.9a4.5,4.5,0,0,0,1.6.3l6.3-.2c7.2-.2,14.3-.8,21.5-1.6s12.2-1.8,18.2-3.1h1.1c.4,1.3.4,49,.1,50.9l-1.6.4-9.6.7-13.2.7a4.5,4.5,0,0,0-3.5,1.9,120.3,120.3,0,0,1-14.9,16.2c-9.6,8.8-19.8,16.7-31.5,22.4a29.1,29.1,0,0,1-9,3.1,5.4,5.4,0,0,1-1.8,0c-1.6-.3-2.3-1-2.3-2.7s.3-5.2.5-7.8c.4-4.2.9-8.4,1.3-12.6.2-2,.2-4.1.3-6.1s-.2-1.5-1.5-1.8c-3.1-.7-3.1-.7-5.4,1.7-6.8,6.9-14.6,12.4-22.9,17.4a66.6,66.6,0,0,1-15,7.1,16.4,16.4,0,0,1-4.4.9c-2.3.1-3.1-1-2.6-3.2s1.6-6.6,2.3-9.9.8-5.3,1.2-7.9a9.6,9.6,0,0,0,0-1.7l-.8.4a176.5,176.5,0,0,0-17.4,16.1,104.3,104.3,0,0,0-10,12c-2.6,3.8-5,7.7-5.8,12.3s-1.1,7.8-1.5,11.6-.7,6.7-.9,10c-.3,6.4-.9,12.8-.2,19.2.2,2.5.6,5.1.8,7.7s1.5,2.9,3.3,3.3a14.4,14.4,0,0,0,7.7-.5c3.6-1,7.2-2.3,10.8-3.6a6.9,6.9,0,0,0,2.3-1.6,101,101,0,0,0,15.1-20.6,86.5,86.5,0,0,0,6.5-15.7c1.4-4.4,2.9-8.8,4.5-13.1a15.7,15.7,0,0,1,3.6-6.1c2-1.9,4-2.1,6.3-.6a13.6,13.6,0,0,1,4.1,4.5,40.7,40.7,0,0,1,6,15.7,93.4,93.4,0,0,1,1.4,16.7c0,2.6.1,2.5,2.7,2.4s3.8-1.4,4.9-3.2,4-6.3,5.9-9.5c3.4-5.8,5.9-12,8.5-18.1a18,18,0,0,1,2.5-4,2.8,2.8,0,0,1,3.7-.6,9.8,9.8,0,0,1,2.2,1.3,21.2,21.2,0,0,1,7.3,11.2,70.8,70.8,0,0,1,2.4,16.6c0,2.3.3,4.7.2,7.1s-.3,7.4-.5,11.2a2,2,0,0,0,.7,2.1c4.2,3.2,7.4,7.3,10.6,11.4A162.6,162.6,0,0,1,264.6,432c3.6,6.2,6.9,12.6,8.9,19.6a23.9,23.9,0,0,1-.2,13.5,67.7,67.7,0,0,1-7.4,15.6A215.6,215.6,0,0,1,245.8,508c-5.2,6.2-10.6,12.2-16.4,17.9a3.9,3.9,0,0,1-2.9,1.1H102ZM259.4,271.1l-1.7-.6-7.5-1.4a51.6,51.6,0,0,1-12.2-2.9c-4.2-1.8-8.5-3.4-12.6-5.4-9.6-4.5-18.9-9.6-28.1-14.7l-23.1-13a8.2,8.2,0,0,0-5.5-.9,45.3,45.3,0,0,0-10.9,3.1,65.3,65.3,0,0,0-7,3.5,2.8,2.8,0,0,0-1.5,1.8l.9.2,5.2.7a62.6,62.6,0,0,1,22.9,8c3.7,2.3,7.2,4.9,10.8,7.3a3.3,3.3,0,0,1,1.1,1.5c.6,1.9,1.3,3.9,1.7,5.8,1.3,6.7.6,13.5-.2,20.1a163.3,163.3,0,0,1-4.5,22.1c-.1.5-.2,1-.3,1.8a11.3,11.3,0,0,0,1.8-.7,46,46,0,0,0,4.5-3.2c5.3-4.8,9-10.7,12.2-16.8a165.3,165.3,0,0,0,10.3-24.7c.2-.6.5-1.1.7-1.7h.3a44.1,44.1,0,0,1,.1,16.2,3.3,3.3,0,0,0,2.8-.6l6.3-4.2,1.1-.6c.1,2.6-.9,4.8-.9,7.1a3,3,0,0,0,2.8-.5,20.9,20.9,0,0,0,7.5-6.4l1.1-1.2c.2.2.3.3.3.4a.8.8,0,0,1,.2.5c-.3,2.8-.5,5.6-1.7,8.2a9.4,9.4,0,0,0-.6,2.8c-.1,4-.1,8-.4,12s-.9,9-1.5,13.5c-.3,2.2-.7,4.3-1.1,6.8l2-1.3c1.7-1.5,3.6-2.8,5.2-4.4A57.6,57.6,0,0,0,250.5,295a85.9,85.9,0,0,0,7.6-18.9C258.5,274.5,258.9,272.9,259.4,271.1ZM187.3,371.7c-1.1.3-1.2,1.1-1.4,1.8-.8,2.3-1.5,4.6-2.4,6.9A203.5,203.5,0,0,1,171.8,406a5.1,5.1,0,0,1-2.3,2.3l-14.6,7.3c-1.5.7-2.9,1.6-4.4,2.4a4.7,4.7,0,0,0,1.7-.1c14.9-4.4,29.7-9.4,44.4-14.5a83.5,83.5,0,0,1,9.7-3c3.7-.8,7.5-.7,10.9,1.6a38.6,38.6,0,0,1,3.8,3l1.8,1.4a14.4,14.4,0,0,0,1.2-2.6c1.2-4.7,2.5-9.4,3.4-14.2s1.5-8.7.7-13.1a15.8,15.8,0,0,0-1.1-3.7c-.4-.9-1.1-.9-1.7,0l-.6,1.3A81.4,81.4,0,0,1,214,393.2a3.4,3.4,0,0,1-2.9,1.6,57,57,0,0,0-8.3.9c-3.8.7-7.5,1.6-11.2,2.5l-1.8.3v-2.4a137.9,137.9,0,0,0-1.1-19.3A13.9,13.9,0,0,0,187.3,371.7Zm9.8-313.2-1-.9A321.9,321.9,0,0,0,163.4,40a213.6,213.6,0,0,0-20.5-8.2A156.8,156.8,0,0,0,112,24.2l-8.8-.9-1-.2c-.4-1.3-.5-17.8,0-19.7h45.7a8.5,8.5,0,0,1,3.1.6,244.4,244.4,0,0,1,29.2,12.9L208,31.7c7.7,4.1,15.4,8.1,23.2,12a93,93,0,0,0,16.2,6.1,70.2,70.2,0,0,0,8.9,1.8C268.7,54,280.9,57,293,60.2l3.6,1c.7.2,1.1.5,1.1,1.3,0,6,0,12-.1,18l-.2.3-1.8-.3c-7.9-1.8-15.7-3.8-23.6-5.4s-14.5-2.3-21.8-3.3c-4.1-.5-8.1-.7-12.2-1a2.6,2.6,0,0,0-1.7.2l2.2.5c11.5,2.3,22.9,4.9,34.3,7.8,7.7,2,15.5,4.2,23,6.9,1.9.7,1.9.7,1.9,2.7v24.8l-1.8-.4-41.2-12-17.5-4.9c-18.3-5.1-36.6-10.2-54.9-15.1s-33.9-9-50.9-13.3c-4.7-1.2-9.6-1.8-14.4-2.6l-13.2-2.2c-1.9-.4-1.9-.4-1.9-2.3v-18c0-1.8,0-1.8,1.7-2.4l5.4-2.1a23.5,23.5,0,0,1,14.6-.4,63.8,63.8,0,0,1,19.7,9.8A101.2,101.2,0,0,1,155.8,58a3.1,3.1,0,0,0,2.6.8l19.2-.2h19.5ZM106.5,53l.2.4c8.4,1.3,16.5,3.8,24.7,6.1-.8-1.7-1.7-3.3-2.6-4.9a15.8,15.8,0,0,0-10.5-7.3,6.3,6.3,0,0,0-5.2.7c-1.4,1-2.9,1.9-4.2,2.9A24.1,24.1,0,0,0,106.5,53ZM100,239.1l-7.5,6.1a134.1,134.1,0,0,0-16.7,17,152.2,152.2,0,0,0-14.7,21A184.3,184.3,0,0,0,51,303a204.2,204.2,0,0,0-11.4,35.8A116.3,116.3,0,0,0,36.7,360a68.3,68.3,0,0,0,1.1,13.5,47.1,47.1,0,0,0,5.1,14,2.8,2.8,0,0,0,2.3,1.6l2.5.3a61,61,0,0,1,20.9,8.3,94.1,94.1,0,0,1,20.1,16.6,68.8,68.8,0,0,0,11,9.2l1.2.5c.4-1.8.4-63.6,0-65a95.6,95.6,0,0,0-2.4,17.5,90.3,90.3,0,0,0,1.5,22c.1.3-.1.7-.1,1.2s-.8-.5-1-.8l-9.2-8.7a2.6,2.6,0,0,1-1-2.4c.1-2.7.1-5.3.4-8,.6-4.6,1.2-9.3,1.9-13.9a102.1,102.1,0,0,1,9.1-28,10.8,10.8,0,0,0,1.1-4.7V238.3Zm-1.3-50.5-12.2.6-16.9.7-15.9.7-19.7,1L11.2,193l-.9.3a7.2,7.2,0,0,0,1.9.4l13.4.3,18,.3H55.1a6.1,6.1,0,0,1,3.2.6,7.3,7.3,0,0,1-.5,1.2,110.8,110.8,0,0,1-7.3,13.6,7.5,7.5,0,0,1-3.2,2.9A117.3,117.3,0,0,0,4.4,248.4a4.7,4.7,0,0,0-.9,2.8v148a2.7,2.7,0,0,0,1.4,2.6L20.3,412l1,.4c-.1-.5-.1-.9-.2-1.3a212.7,212.7,0,0,1-4.6-23.8q-1.2-10.2-1.5-20.4a159.3,159.3,0,0,1,.9-20.7,140.9,140.9,0,0,1,3-18.2,198.8,198.8,0,0,1,9.9-30,193.2,193.2,0,0,1,12-24.1,175.8,175.8,0,0,1,33.8-42,137.9,137.9,0,0,1,25-18,2.7,2.7,0,0,0,1.6-2.8V188.8Zm2.5,336.9V499.7c0-.4-.2-.8-.3-1.5a84.5,84.5,0,0,1-31.3,7.1l4.1-4.4A30.1,30.1,0,0,0,80,490.1a34.8,34.8,0,0,0,1.2-5.6,2.7,2.7,0,0,0-.9-2.5c-1-1.1-2-2.4-3.1-3.5C70,471.2,62.9,463.8,55,457.3c-5.9-4.8-11.8-9.5-18-13.9a211.2,211.2,0,0,0-19.2-11.9c-4.2-2.2-8.5-4.2-12.8-6.3l-1.4-.4V526.9H101C101,526.5,101.2,526,101.2,525.5Zm0-376.9v-29c0-3.2.4-2.9-2.8-3.4l-25.8-4.1-25.2-3.7-22-3.1-11.1-1.4a17.1,17.1,0,0,1,3.2-.1l15.9,1.3,12.8,1.1,14.5,1.6,19.4,2.1,18.3,2.3,2.6.2a12.5,12.5,0,0,0,.2-1.5V76.4c0-1.5-.2-1.7-1.7-1.9a180.3,180.3,0,0,0-20.7-1.6c-6.2-.1-12.4.1-18.6.3-3.3.1-6.6.3-9.8.7-5.9.6-11.8,1.4-17.7,2.2-9.3,1.2-18.4,3.1-27.5,5.1l-1.6.5v36.1l2.4.5c4.1.6,8.1,1,12.1,1.8,9.2,1.8,18.1,4.7,26.1,9.6a43.3,43.3,0,0,1,17.4,18.8,2,2,0,0,0,2.1,1.4h6.7c5.4.1,10.7.4,16,.6l12.8.6,2-.2Zm.7-72.1v34.3c0,1.6.1,1.8,1.6,2l9,1.1,17.1,2.2,21.5,2.9,21.5,2.8,21,3,20.4,2.8,24.8,3.6,24.7,3.6,3.1.4c-12.9-3.9-25.9-7.6-38.9-11.1-20.7-5.6-37.4-10.4-39-11.5l8.5-3.7,8.4-3.6c2.8-1.1,5.6-2.1,8.6-3.5l-1.4-.9c-4.5-1.9-8.9-4.1-13.5-5.7s-11.8-3.8-17.8-5.4a430.2,430.2,0,0,0-42.3-9.2c-9.7-1.7-19.5-3.2-29.3-4.7l-7.8-1.1A12.8,12.8,0,0,0,101.9,76.5ZM3.5,3.6V34H5.4l11.5-1.2L33.7,31c7-.9,14.1-1.7,21.1-2.7l20.3-2.9,9.2-1.5a92.4,92.4,0,0,1,14.9-.7h1a.9.9,0,0,0,1-.9V5.1c0-.5-.1-1.1-.1-1.7C97.3,3,4.9,3.2,3.5,3.6Zm98.4,115.5v30.6c0,1.3.1,1.5,1.4,1.5h2.9l18.6.9,11.9.4,7.6.4,17.1.9,10.4.4,7.3.4,17.9,1,7.8.4,15.4.9,8.8.4,7.8.6h2.9a66.8,66.8,0,0,0-8.7-1.7l-32.5-5.1-22.9-3.8c-5.4-.9-10.8-2.1-16.2-3.1-2-.4-2.1-.7-1.4-2.6,0-.2.1-.3.2-.5a34.9,34.9,0,0,1,6.2-10.3l2.7-3.3-2.7-.5-31.2-5.2-29.1-4.8H102C102,117.8,101.9,118.5,101.9,119.1Zm117.9,59.4h-1.5l-11.2-.8-11.8-.9-10.3-.8-12-.9-10.5-.8c-2.4-.3-2.4-.3-2.9-2.7s-1.1-6.2-1.7-9.3c-.3-1.5-.4-1.7-1.6-1.8L141.6,159l-9.9-.8-11.4-.9-10.3-.9-6.2-.4c-1.8-.1-1.9,0-1.9,1.7v25.6q0,1.3,1.2,1.2h2.8l17.7-1.3,16.6-1,18.1-1,20.2-1,15.9-.7,17-.4H218l1.8-.2Zm-154.7,9,6.2-.6,11-.8,17.1-1.2c1.7-.1,1.8-.2,1.8-1.9V157.3c0-1.4-.2-1.6-1.4-1.6l-13.7-1.1-11-.8-11.5-.9-12-.7L34,150.9l-14-.8-7.8-.5-6.9-.4c-.5,0-1.1-.2-1.6.5l1.1.3,10.6,1.6,23.5,3.5,23.8,3.6c2,.3,2.2.5,2.4,2.5,0,.3.1.6.1.9A61.3,61.3,0,0,1,62,185.7a17.2,17.2,0,0,0-.4,1.8Zm103.2,15.2c-1.5-4.7-3.1-9.3-4.6-14-.6-1.8-.5-1.9-2.4-1.8l-12.2.3-20.5.6-17.5.5-7.8.3h-.5a.9.9,0,0,0-.9,1V211c0,.4.1.8.1,1.5l2-.9a112.4,112.4,0,0,1,21.7-8.5,82.5,82.5,0,0,1,15.3-2.9,64.9,64.9,0,0,1,22.8,2.6l5,1.6A9.1,9.1,0,0,0,168.3,202.7ZM100.9,41.8c-3,.2-30,13.3-31.6,15.4,1.6.6,30.3,5.4,31.6,5.2S101.3,43.2,100.9,41.8Z" fill="#ad8631"/>
        </g>
      </g>
      <path id="text" d="M189,328.3H176.5l5.6-57.1H194L207.1,307l13.7-35.8h10.7l5.6,57.1H223l-1.9-28.7-11.5,28.7h-7.5l-10.8-28.8Zm56.1,0V271.2h14.7v57.1Zm23.7,0v-7.5l22.8-38.6H269.9v-11h38.3v7.3l-23,38.7h23.3v11.1Zm46.4,0v-7.5L338,282.2H316.3v-11h38.4v7.3l-23.1,38.7h23.3v11.1Zm93.4-50.1q8.4,8.3,8.4,21.9t-8.4,21.6a27.8,27.8,0,0,1-19.7,7.9,28.3,28.3,0,0,1-10.4-2,28.7,28.7,0,0,1-9-5.5,26.9,26.9,0,0,1-6.3-9.3,32.2,32.2,0,0,1-2.4-12.7,31.5,31.5,0,0,1,4.1-16.2,26.6,26.6,0,0,1,24-13.9A27.1,27.1,0,0,1,408.6,278.2Zm-29.1,8.5c-2.5,3.1-3.7,7.5-3.7,13.2S377,310,379.5,313a11.4,11.4,0,0,0,9.4,4.5,11.7,11.7,0,0,0,9.5-4.5c2.4-3,3.6-7.3,3.6-13.1s-1.2-10.1-3.6-13.2a11.8,11.8,0,0,0-9.5-4.7A11.3,11.3,0,0,0,379.5,286.7Zm59.1-15.5v36.7c0,6.6,3,9.9,8.8,9.9s8.5-3.3,8.5-9.9V271.2h13.5v35.4c0,7.3-2.1,12.9-6.1,16.9s-9.5,5.9-16.7,5.9-12.6-1.9-16.6-5.7-6.1-9.5-6.1-17.1V271.2ZM265.7,400v-7.5L288.5,354H266.8V342.9h38.4v7.3l-23,38.8h23.2v11Zm94.2-50.1q8.4,8.3,8.4,21.9t-8.4,21.6a27.2,27.2,0,0,1-19.7,7.9,28.2,28.2,0,0,1-10.4-1.9,29,29,0,0,1-9-5.6,25.6,25.6,0,0,1-6.3-9.3,32.2,32.2,0,0,1-2.4-12.7,31.4,31.4,0,0,1,4.1-16.1,26.9,26.9,0,0,1,10.4-10.5A27.9,27.9,0,0,1,359.9,349.9Zm-29.1,8.5c-2.5,3.1-3.7,7.5-3.7,13.3s1.2,10.1,3.7,13.1a11.4,11.4,0,0,0,9.4,4.5,11.7,11.7,0,0,0,9.5-4.5c2.4-3,3.6-7.4,3.6-13.1s-1.2-10.2-3.6-13.3a11.4,11.4,0,0,0-9.5-4.6A11.2,11.2,0,0,0,330.8,358.4ZM389.6,400H377.2V342.9h14.6l19.2,33v-33h12.4V400h-13l-20.8-35.7Zm45.3,0V342.9h34.8V354H449.6v11.2h18.2v11H449.6V389H470v11Z" fill="#fff"/>
    </g>
  </g>
</svg>
