<svg id="Layer_1" data-name="Layer 1" xmlns="http://www.w3.org/2000/svg" viewBox="0 0 1162.7 1205"><title>logo</title><g id="next"><polygon points="691.7 811.5 469.4 811.5 358.2 1004 469.4 1196.5 691.7 1196.5 802.8 1004 691.7 811.5" fill="#394e5d"/><path d="M716.2,1217.5H484l-116-201,116-201H716.2l116,201Zm-222.3-17H706.3l106.3-184-106.3-184H493.9l-106.3,184Z" transform="translate(-19.6 -12.5)" fill="#008169"/><polygon points="660.8 1163.8 620.4 1094.7 540.3 1094.9 500.7 1164.7 660.8 1163.8" fill="#52b3bb"/><path d="M564.7,876.7V856.5h5.1l6.8,11.6V856.5H581v20.2h-4.5L569.1,864v12.7Z" transform="translate(-19.6 -12.5)" fill="#52b3bb"/><path d="M585.8,856.5h12.3v3.9H591v4h6.5v3.9H591v4.5h7.2v3.9H585.8Z" transform="translate(-19.6 -12.5)" fill="#52b3bb"/><path d="M601,876.7l6.3-10.6-5.7-9.6h5.6l3.3,5.4,3.1-5.4h4.7l-5.5,9.4,6.3,10.8h-5.6l-3.9-6.7-3.9,6.7Z" transform="translate(-19.6 -12.5)" fill="#52b3bb"/><path d="M625.9,860.4h-5.1v-3.9h15.5v3.9h-5.2v16.3h-5.2Z" transform="translate(-19.6 -12.5)" fill="#52b3bb"/><circle cx="576.9" cy="1029" r="89.5" fill="#e9ead6"/><path d="M603.5,982.1c24.2,2.2,41.4,16.2,48,31.2a8.5,8.5,0,0,0,8.7,4.9h0c3.6-.3,6.4-3.3,5.2-7.3-5.4-17.7-21.9-35.4-47-42.4-5.6-1.7-14.4.9-18.4,5.3h0C596.1,978.2,598.2,981.7,603.5,982.1Z" transform="translate(-19.6 -12.5)" fill="#394e5d"/><path d="M505.3,923.9a30.6,30.6,0,0,0,21.5,20.2,1.1,1.1,0,0,0,1.2-.7,1.1,1.1,0,0,0-.7-1.3h0a28.4,28.4,0,0,1-20.1-18.8,1,1,0,0,0-1.9.6Z" transform="translate(-19.6 -12.5)" fill="#e3bc5b" stroke="#e3bc5b" stroke-miterlimit="10" stroke-width="3"/><path d="M507.2,963.6a28.4,28.4,0,0,1,20.1-18.8,1.1,1.1,0,0,0,.7-1.3,1.1,1.1,0,0,0-1.2-.7A30.4,30.4,0,0,0,505.3,963a1,1,0,1,0,1.9.5Z" transform="translate(-19.6 -12.5)" fill="#e3bc5b" stroke="#e3bc5b" stroke-miterlimit="10" stroke-width="3"/><path d="M504.5,923.3a28.5,28.5,0,0,1-20,18.8,1,1,0,0,0-.7,1.3,1,1,0,0,0,1.2.7,30.9,30.9,0,0,0,21.5-20.2c.4-1.3-1.6-1.8-2-.6Z" transform="translate(-19.6 -12.5)" fill="#e3bc5b" stroke="#e3bc5b" stroke-miterlimit="10" stroke-width="3"/><path d="M506.5,963A30.8,30.8,0,0,0,485,942.8a1,1,0,0,0-1.2.7,1,1,0,0,0,.7,1.3,28.5,28.5,0,0,1,20,18.8c.4,1.2,2.4.7,2-.6Z" transform="translate(-19.6 -12.5)" fill="#e3bc5b" stroke="#e3bc5b" stroke-miterlimit="10" stroke-width="3"/><path d="M685.6,891.2a38.4,38.4,0,0,0,26.8,25.2,1.3,1.3,0,0,0,1.6-.9,1.1,1.1,0,0,0-.9-1.5,35.8,35.8,0,0,1-25-23.5c-.5-1.5-2.9-.9-2.4.7Z" transform="translate(-19.6 -12.5)" fill="#e3bc5b" stroke="#e3bc5b" stroke-miterlimit="10" stroke-width="3"/><path d="M688.1,940.7a35.3,35.3,0,0,1,25-23.4,1.3,1.3,0,0,0,.8-1.6,1.2,1.2,0,0,0-1.5-.8,37.8,37.8,0,0,0-26.8,25.2c-.5,1.5,1.9,2.2,2.4.6Z" transform="translate(-19.6 -12.5)" fill="#e3bc5b" stroke="#e3bc5b" stroke-miterlimit="10" stroke-width="3"/><path d="M684.7,890.5a35.8,35.8,0,0,1-25,23.5,1.1,1.1,0,0,0-.9,1.5,1.2,1.2,0,0,0,1.5.9,38.2,38.2,0,0,0,26.8-25.2c.5-1.6-1.9-2.2-2.4-.7Z" transform="translate(-19.6 -12.5)" fill="#e3bc5b" stroke="#e3bc5b" stroke-miterlimit="10" stroke-width="3"/><path d="M687.1,940.1a37.8,37.8,0,0,0-26.8-25.2,1.2,1.2,0,0,0-1.5.8,1.3,1.3,0,0,0,.8,1.6,35.3,35.3,0,0,1,25,23.4c.5,1.6,3,.9,2.5-.6Z" transform="translate(-19.6 -12.5)" fill="#e3bc5b" stroke="#e3bc5b" stroke-miterlimit="10" stroke-width="3"/><path d="M714.3,953.9a30.6,30.6,0,0,0,21.5,20.2,1.1,1.1,0,0,0,1.2-.7,1.1,1.1,0,0,0-.7-1.3,28.4,28.4,0,0,1-20.1-18.8,1,1,0,0,0-1.9.6Z" transform="translate(-19.6 -12.5)" fill="#e3bc5b" stroke="#e3bc5b" stroke-miterlimit="10" stroke-width="3"/><path d="M716.2,993.6a28.4,28.4,0,0,1,20.1-18.8,1,1,0,1,0-.6-2A30.4,30.4,0,0,0,714.3,993a1,1,0,1,0,1.9.5Z" transform="translate(-19.6 -12.5)" fill="#e3bc5b" stroke="#e3bc5b" stroke-miterlimit="10" stroke-width="3"/><path d="M713.5,953.3a28.5,28.5,0,0,1-20,18.8,1,1,0,0,0-.7,1.3,1,1,0,0,0,1.2.7,30.9,30.9,0,0,0,21.5-20.2c.4-1.3-1.6-1.8-2-.6Z" transform="translate(-19.6 -12.5)" fill="#e3bc5b" stroke="#e3bc5b" stroke-miterlimit="10" stroke-width="3"/><path d="M715.5,993A30.8,30.8,0,0,0,694,972.8a1,1,0,0,0-1.2.7,1,1,0,0,0,.7,1.3,28.5,28.5,0,0,1,20,18.8c.4,1.2,2.4.7,2-.6Z" transform="translate(-19.6 -12.5)" fill="#e3bc5b" stroke="#e3bc5b" stroke-miterlimit="10" stroke-width="3"/></g><g id="ux"><polygon points="343.2 612 120.9 612 9.8 804.5 120.9 997 343.2 997 454.4 804.5 343.2 612" fill="#008169"/><path d="M367.7,1018.1H135.6l-116-201L135.6,616H367.7l116,201Zm-222.3-17H357.9l106.2-184L357.9,633H145.4L39.1,817Z" transform="translate(-19.6 -12.5)" fill="#e9ead6"/><polygon points="125.4 989 338.3 989 445.4 804.7 338.2 620.2 125.4 989" fill="#394e5d"/><path d="M262.4,719.2a62.5,62.5,0,1,1-78.7,40.3,62.5,62.5,0,0,1,78.7-40.3Zm-35,108.3a117.5,117.5,0,1,0-.1-.1Z" transform="translate(-19.6 -12.5)" fill="#e9ead6"/><path d="M282.7,823l39.9,83.3-23.2,11.6-41.1-85.7C266.6,829.4,274.8,826.5,282.7,823Z" transform="translate(-19.6 -12.5)" fill="#e9ead6"/><path d="M236.5,673c1.7,0,3-.9,3-3.5v-13h4.7V669c0,5.2-3,8.1-8,8.1s-8-2.6-8-8.1V656.5h5.2v13C233.4,672.2,234.7,673,236.5,673Z" transform="translate(-19.6 -12.5)" fill="#52b3bb"/><path d="M246.9,676.7l6.3-10.6-5.7-9.6h5.7l3.2,5.4,3.1-5.4h4.7l-5.5,9.4,6.4,10.8h-5.7l-3.9-6.7-3.9,6.7Z" transform="translate(-19.6 -12.5)" fill="#52b3bb"/></g><g id="editorial"><polygon points="344.7 209.4 122.4 209.4 11.2 401.9 122.4 594.5 344.7 594.5 455.8 401.9 344.7 209.4" fill="#d87e75"/><path d="M369.1,615.5H137L21,414.5l116-201H369.1l116.1,201Zm-222.3-17H359.3l106.3-184-106.3-184H146.9L40.6,414.5Z" transform="translate(-19.6 -12.5)" fill="#e06450"/><path d="M179.3,253.5h12.4v3.9h-7.2v4H191v3.9h-6.5v4.5h7.3v3.9H179.3Z" transform="translate(-19.6 -12.5)" fill="#394e5d"/><path d="M196.2,253.5h7c5.2,0,9.9,3.4,9.9,10.2s-4.7,10-9.9,10h-7Zm5.3,3.9v12.4h1.4c2.9,0,4.9-2,4.9-6.2s-2-6.2-4.9-6.2Z" transform="translate(-19.6 -12.5)" fill="#394e5d"/><path d="M217,253.5h5.2v20.2H217Z" transform="translate(-19.6 -12.5)" fill="#394e5d"/><path d="M230.6,257.4h-5.1v-3.9h15.4v3.9h-5.1v16.3h-5.2Z" transform="translate(-19.6 -12.5)" fill="#394e5d"/><path d="M252.7,274.1c-5,0-9.9-3.6-9.9-10.4s4.9-10.7,9.9-10.7,10,3.9,10,10.7S257.8,274.1,252.7,274.1Zm0-4.2c2.7,0,4.7-2,4.7-6.3s-2-6.3-4.7-6.3-4.6,2.1-4.6,6.3,2,6.3,4.6,6.3Z" transform="translate(-19.6 -12.5)" fill="#394e5d"/><path d="M266.5,253.5h8.3c3.7,0,6.6,2.1,6.6,6.3a5.7,5.7,0,0,1-3.7,5.6l4.7,8.3h-5.6l-4.2-7.6h-.9v7.6h-5.2Zm5.2,3.9v5.4h2.1a2.5,2.5,0,0,0,2.6-2.4V260a2.4,2.4,0,0,0-2.1-2.6h-2.6Z" transform="translate(-19.6 -12.5)" fill="#394e5d"/><path d="M285.2,253.5h5.3v20.2h-5.3Z" transform="translate(-19.6 -12.5)" fill="#394e5d"/><path d="M300.7,253.3h3.8l7.4,20.4h-5.3l-1-3h-6.7l-1,3h-4.6Zm1.5,7.5-2.1,6.3h4.3Z" transform="translate(-19.6 -12.5)" fill="#394e5d"/><path d="M314.7,253.5h5.2v16.3h7.3v3.9H314.7Z" transform="translate(-19.6 -12.5)" fill="#394e5d"/><polygon points="56 406.5 174.4 472.6 174.1 450.3 94.6 405.9 172.8 359.3 172.4 337 56 406.5" fill="#e9ead6"/><polygon points="411 401.9 292.6 335.9 293 358.1 372.5 402.5 294.3 449.2 294.6 471.4 411 401.9" fill="#e9ead6"/><path d="M208.7,535.2l.3.2,67.8-125.3-15.3-1.6,34-79.2-.6-.3-34-3.5c-.9-.1-1.2.5-1.6,1.5-3.6,11.7-7.3,23.5-11,35.3l-21.6,69.1c-.4,1.3-.7,2.5-1.2,4l14.5,1.5Z" transform="translate(-19.6 -12.5)" fill="#e3bc5b"/><path d="M208.7,535.2l31.2-98.3-14.5-1.5c.5-1.5.8-2.7,1.2-4,7.2-23,14.4-46.1,21.7-69.1,3.6-11.8,7.3-23.5,11-35.3.3-1,.6-1.5,1.5-1.4l34,3.5.6.2-34,79.2,15.3,1.6L209,535.4Z" transform="translate(-19.6 -12.5)" fill="#e3bc5b"/></g><g id="saratoga"><polygon points="692.9 8.5 470.6 8.5 359.5 201 470.6 393.5 692.9 393.5 804.1 201 692.9 8.5" fill="#394e5d"/><path d="M717.4,414.5H485.3l-116.1-201,116.1-201H717.4l116,201Zm-222.3-17H707.5l106.3-184L707.5,29.5H495.1l-106.3,184Z" transform="translate(-19.6 -12.5)" fill="#e9ead6"/><path d="M522.1,225.4c.2-1.6.4-7,.7-8.7h35.9V200.1H560v-6.8h4.7V155.1h36.1c.2-5.2.5-10.3.7-15.5h-6.1c-1.9,0-4.2.5-3-3.7h9.9V115H604v21.5c3.4,0,6-.1,8.6.1.7,0,1.4.9,2,1.4s-1.3,1.5-2,1.5c-2.5.2-5.1.1-8.1.1.2,5.2.5,10.3.7,15.4h20.4v38.2h3.6v7.9h2.2V216l5.7.4v12.4h157s-28.2,7.1-27.7,8.3-28.7,64.1-31.3,64.1H441.3c-2,0-3.9-29.7-5.1-31.6-8.7-13.7-17.6-27.4-26.4-41.1-.6-.9-1.1-2-1.7-3.1Z" transform="translate(-19.6 -12.5)" fill="#e9ead6"/><path d="M533.7,56.3c-1.3,0-2.4.4-2.4,1.6s2.3,1.7,4.3,2.6S540,63,540,66.4s-2.8,6.6-7.5,6.6a9.9,9.9,0,0,1-6.4-1.7l1.4-4.1a8.4,8.4,0,0,0,4.9,1.6c1.9,0,2.8-.6,2.8-1.7s-1.7-2-3.9-2.9-4.6-2.4-4.6-5.8,2.5-6.3,7.1-6.3a12.6,12.6,0,0,1,5.7,1.4l-1.3,4A10.1,10.1,0,0,0,533.7,56.3Z" transform="translate(-19.6 -12.5)" fill="#52b3bb"/><path d="M549.2,52.3H553l7.4,20.4h-5.2l-1-3h-6.8l-1,3h-4.5Zm1.5,7.5-2.1,6.3h4.3Z" transform="translate(-19.6 -12.5)" fill="#52b3bb"/><path d="M563.2,52.5h8.3c3.7,0,6.6,2.1,6.6,6.3a5.7,5.7,0,0,1-3.7,5.6l4.6,8.3h-5.5l-4.3-7.6h-.8v7.6h-5.2Zm5.2,3.9v5.4h2.1a2.5,2.5,0,0,0,2.6-2.4V59a2.4,2.4,0,0,0-2.1-2.6h-2.6Z" transform="translate(-19.6 -12.5)" fill="#52b3bb"/><path d="M587.7,52.3h3.7l7.4,20.4h-5.2l-1-3h-6.8l-1,3h-4.5Zm1.5,7.5L587,66.1h4.3Z" transform="translate(-19.6 -12.5)" fill="#52b3bb"/><path d="M603.7,56.4h-5.1V52.5H614v3.9h-5.1V72.7h-5.2Z" transform="translate(-19.6 -12.5)" fill="#52b3bb"/><path d="M625.8,73.2c-5,0-9.9-3.7-9.9-10.5S620.8,52,625.8,52s10,3.9,10,10.7S630.9,73.2,625.8,73.2Zm0-4.3c2.6,0,4.6-2,4.6-6.2s-2-6.4-4.6-6.4-4.6,2.1-4.6,6.4S623.2,68.9,625.8,68.9Z" transform="translate(-19.6 -12.5)" fill="#52b3bb"/><path d="M648.5,73.2c-5.4,0-9.9-3.5-9.9-10.4s5-10.8,10.8-10.8a17.1,17.1,0,0,1,5.5.9L653.7,57a10.9,10.9,0,0,0-4-.7c-3.2,0-5.8,1.9-5.8,6.4S646,69,648.7,69l1.7-.2V65h-2.5V61.1h7.5V71.2A11.6,11.6,0,0,1,648.5,73.2Z" transform="translate(-19.6 -12.5)" fill="#52b3bb"/><path d="M665,52.3h3.8l7.3,20.4h-5.2l-1-3h-6.8l-1,3h-4.5Zm1.5,7.5-2.1,6.3h4.3Z" transform="translate(-19.6 -12.5)" fill="#52b3bb"/><path d="M769.9,288.4l-48.6,84.1c-96.3,2.1-171.7-67.1-268.1-48.7L416,259.4C541,202.8,644.9,328.1,769.9,288.4Z" transform="translate(-19.6 -12.5)" fill="#52b3bb"/></g><g id="engage"><polygon points="1041.1 209.5 818.8 209.5 707.7 402 818.8 594.5 1041.1 594.5 1152.3 402 1041.1 209.5" fill="#e3bc5b"/><path d="M1065.6,615.5H833.5l-116.1-201,116.1-201h232.1l116.1,201Zm-222.3-17h212.5l106.2-184-106.2-184H843.3l-106.2,184Z" transform="translate(-19.6 -12.5)" fill="#e06450"/><path d="M894.8,253.2h12.4v3.9h-7.1v4h6.4V265h-6.4v4.5h7.2v3.9H894.8Z" transform="translate(-19.6 -12.5)" fill="#394e5d"/><path d="M911.8,273.4V253.2h5.1l6.8,11.7V253.2h4.4v20.2h-4.6l-7.3-12.6v12.6Z" transform="translate(-19.6 -12.5)" fill="#394e5d"/><path d="M941.7,273.9c-5.4,0-9.9-3.5-9.9-10.4s5-10.7,10.8-10.7a15.3,15.3,0,0,1,5.6.9l-1.3,4.1a13.6,13.6,0,0,0-3.9-.8c-3.3,0-5.9,2-5.9,6.4s2.2,6.4,4.8,6.4l1.8-.2v-3.9h-2.5v-3.9h7.4V272A11.1,11.1,0,0,1,941.7,273.9Z" transform="translate(-19.6 -12.5)" fill="#394e5d"/><path d="M958.2,253.1H962l7.4,20.3h-5.2l-1-3h-6.8l-1,3h-4.5Zm1.5,7.4-2.1,6.4h4.3Z" transform="translate(-19.6 -12.5)" fill="#394e5d"/><path d="M980.1,273.9c-5.3,0-9.9-3.5-9.9-10.4s5-10.7,10.8-10.7a17.7,17.7,0,0,1,5.6.9l-1.3,4.1a13.6,13.6,0,0,0-3.9-.8c-3.3,0-5.9,2-5.9,6.4s2.2,6.4,4.8,6.4l1.8-.2v-3.9h-2.6v-3.9H987V272A11.8,11.8,0,0,1,980.1,273.9Z" transform="translate(-19.6 -12.5)" fill="#394e5d"/><path d="M991.4,253.2h12.3v3.9h-7.1v4h6.5V265h-6.5v4.5h7.2v3.9H991.4Z" transform="translate(-19.6 -12.5)" fill="#394e5d"/><path d="M952.5,480.8l30.7-32.4c8.3-8.7,16.5-17.5,24.9-26.5l13.6,8.6c6.8,4.2,13,3.3,18.5-2.5l9.7-10.5.9-.5,26.9,16.7,41.5,25.6v.7a16.6,16.6,0,0,1-3.8,1.1L956.6,481.6a17.9,17.9,0,0,1-4-.1Z" transform="translate(-19.6 -12.5)" fill="#e9ead6"/><path d="M939.3,378.2l21,13c13.8,8.7,27.6,17.6,41.8,26.7l-14.7,15.7-36,38.1Z" transform="translate(-19.6 -12.5)" fill="#e9ead6"/><path d="M1118.1,450.2l-55.6-34.4-7-4.4,14.8-16.1,35.7-38.7Z" transform="translate(-19.6 -12.5)" fill="#e9ead6"/><path d="M1104.6,347.3l-19.2,21-48.6,52.9c-5.4,5.8-7.1,6-13.7,1.7l-81.7-52.3-2.7-1.8Z" transform="translate(-19.6 -12.5)" fill="#e9ead6"/><path d="M740.7,406.8l-4.5,7.7,17.5,30.2c68,2,118-66.5,189.5-37.2l-4.8-37.3C864,339.8,812.2,415,740.7,406.8Z" transform="translate(-19.6 -12.5)" fill="#e06450"/><path d="M754.7,444.7l21,36.5c61.4-7.6,106.5-63.3,172.3-36.4l-4.8-37.3C871.7,378.2,822.7,446.7,754.7,444.7Z" transform="translate(-19.6 -12.5)" fill="#52b3bb"/><path d="M773.7,478.2l20,34.5c55.4-13.5,98.8-55.3,159.1-30.6L948,444.8C882.2,417.9,835.1,470.6,773.7,478.2Z" transform="translate(-19.6 -12.5)" fill="#008169"/></g><g id="apps"><polygon points="1041.8 611.8 819.5 611.8 708.3 804.3 819.5 996.8 1041.8 996.8 1152.9 804.3 1041.8 611.8" fill="#d87e75"/><path d="M1066.2,1017.9H834.1L718,816.9l116.1-201h232.1l116,201Zm-222.3-17h212.5l106.2-184-106.2-184H843.9l-106.2,184Z" transform="translate(-19.6 -12.5)" fill="#e9ead6"/><polygon points="1143.1 804.3 1036.8 620.3 824.4 620.3 718.1 804.3 718.8 805.5 1142.4 805.5 1143.1 804.3" fill="#e06450"/><path d="M921,656.3h3.8l7.4,20.4H927l-1-3h-6.8l-1,3h-4.5Zm1.5,7.5-2.1,6.3h4.3Z" transform="translate(-19.6 -12.5)" fill="#394e5d"/><path d="M935,656.5h7.6c3.9,0,6.9,2.2,6.9,6.7s-3.4,6.4-6.9,6.4h-2.4v7.1H935Zm5.2,3.9v5.4h1.7a2.7,2.7,0,0,0,2.5-2.8,2.6,2.6,0,0,0-2.5-2.6Z" transform="translate(-19.6 -12.5)" fill="#394e5d"/><path d="M953.2,656.5h7.7c3.9,0,6.8,2.2,6.8,6.7s-3.4,6.4-6.8,6.4h-2.5v7.1h-5.2Zm5.2,3.9v5.4h1.7a2.8,2.8,0,0,0,2.6-2.8,2.8,2.8,0,0,0-2.6-2.6Z" transform="translate(-19.6 -12.5)" fill="#394e5d"/><path d="M977.6,660.3c-1.3,0-2.3.4-2.3,1.6s2.2,1.7,4.2,2.6,4.5,2.5,4.5,5.9-2.9,6.6-7.5,6.6a10,10,0,0,1-6.5-1.7l1.4-4.1a8.7,8.7,0,0,0,4.9,1.6c2,0,2.9-.6,2.9-1.7s-1.8-2-3.9-2.9-4.7-2.4-4.7-5.8,2.5-6.2,7.1-6.2a10.3,10.3,0,0,1,5.7,1.4l-1.2,4A9.4,9.4,0,0,0,977.6,660.3Z" transform="translate(-19.6 -12.5)" fill="#394e5d"/><rect x="844.7" y="763.9" width="211.4" height="124.99" rx="12" ry="12" transform="translate(89.2 1750.7) rotate(-89.1)" fill="#e9ead6"/><rect x="864.6" y="767.7" width="171.9" height="105.43" rx="12" ry="12" transform="matrix(0.02, -1, 1, 0.02, 95.24, 1744.96)" fill="#008169"/><circle cx="930.3" cy="906.4" r="9" fill="none" stroke="#000" stroke-miterlimit="10"/><ellipse cx="932.2" cy="807.1" rx="7.7" ry="42.3" fill="none" stroke="#e3bc5b" stroke-miterlimit="10" stroke-width="4"/><ellipse cx="932.2" cy="807.1" rx="42.3" ry="7.7" fill="none" stroke="#394e5d" stroke-miterlimit="10" stroke-width="4"/><ellipse cx="951.7" cy="819.6" rx="7.7" ry="42.3" transform="translate(-320.4 900.5) rotate(-45)" fill="none" stroke="#52b3bb" stroke-miterlimit="10" stroke-width="4"/><ellipse cx="951.7" cy="819.6" rx="42.3" ry="7.7" transform="translate(-320.4 900.5) rotate(-45)" fill="none" stroke="#e06450" stroke-miterlimit="10" stroke-width="4"/></g><g id="design"><path d="M607,808.9H712.5l111.4-193L712.4,422.8H489.5L378,615.9,489.5,809H607Z" transform="translate(-19.6 -12.5)" fill="#52b3bb"/><path d="M607.8,817.5H484.6L368.2,615.9,484.6,414.3H717.3L833.7,615.9,717.4,817.4H607.8Zm-113.4-17H707.6L814.1,615.9,707.5,431.3H494.4L387.8,615.9Z" transform="translate(-19.6 -12.5)" fill="#394e5d"/><path d="M711.1,718.6c4.8-22.8,5.6-63.7-4.5-86.7a114.8,114.8,0,0,0-217.4,70.2Z" transform="translate(-19.6 -12.5)" fill="#e06450"/><path d="M686.9,702.1A88.7,88.7,0,1,0,516,654.3a90.2,90.2,0,0,0,0,47.8Z" transform="translate(-19.6 -12.5)" fill="#d87e75"/><path d="M660,702.1a63.2,63.2,0,1,0-117,0Z" transform="translate(-19.6 -12.5)" fill="#e3bc5b"/><path d="M481.1,500.3l2.9-29h6l6.6,18.2,7-18.2H509l2.9,29h-7.2l-1-14.6-5.8,14.6h-3.8l-5.5-14.6-1.2,14.6Zm57.1-1.6a13.9,13.9,0,0,1-8.2,2c-7.9,0-14.7-4.7-14.7-14.6s6.6-15.2,14.7-15.2a17.9,17.9,0,0,1,7.9,1.4l-1.8,5.9a11.1,11.1,0,0,0-5-1.2c-5,0-8.1,3.2-8.1,9s3.3,8.6,7.7,8.6a11.2,11.2,0,0,0,5.6-1.5Zm25.9,0a13.8,13.8,0,0,1-8.1,2c-8,0-14.7-4.7-14.7-14.6s6.6-15.2,14.7-15.2a17.2,17.2,0,0,1,7.8,1.4l-1.8,5.9a11.1,11.1,0,0,0-5-1.2c-5,0-8.1,3.2-8.1,9s3.3,8.6,7.7,8.6a12.2,12.2,0,0,0,5.6-1.4Zm4.8-27.4h7.5v23.4h10.5v5.6h-18Zm31.6-.2h5.3l10.6,29.2h-7.5l-1.4-4.3h-9.7l-1.5,4.3h-6.5Zm2.1,10.7-3.1,9.1h6.2Zm20.8-4.9H616v-5.6h22.2v5.6h-7.4v23.4h-7.5Zm40.2,21.8a13.8,13.8,0,0,1-8.1,2c-8,0-14.7-4.7-14.7-14.6s6.6-15.2,14.7-15.2a17.2,17.2,0,0,1,7.8,1.4l-1.8,5.9a10.6,10.6,0,0,0-5-1.2c-4.9,0-8.1,3.2-8.1,9s3.4,8.6,7.7,8.6a10.9,10.9,0,0,0,5.6-1.5Zm4.9-27.4h7.4v11.3h9.2V471.3h7.4v29h-7.4V488.2h-9.2v12.1h-7.4Zm36.6,17.3-8.6-17.3h7.7l5,10.5,5-10.5h6.6l-8.3,16.8v12.2h-7.4ZM528.6,517.7h10c7.4,0,14.2,5,14.2,14.6s-6.8,14.4-14.2,14.4h-10Zm7.5,5.6v17.8h2c4.1,0,7.1-2.8,7.1-8.9s-3-8.9-7.1-8.9Zm22.2-5.6H576v5.6H565.8V529H575v5.6h-9.2v6.5h10.3v5.6H558.3Zm33.1,5.5c-1.9,0-3.4.6-3.4,2.3s3.2,2.5,6.1,3.7,6.4,3.6,6.4,8.5-4.1,9.5-10.7,9.5c-4.6,0-7.2-1-9.3-2.5l2-5.9a12,12,0,0,0,7,2.3c2.8,0,4.1-.9,4.1-2.4s-2.5-2.9-5.6-4.2-6.6-3.5-6.6-8.3,3.6-9,10.1-9a16.6,16.6,0,0,1,8.2,2l-1.8,5.8A14.7,14.7,0,0,0,591.4,523.2Zm14.4-5.5h7.5v29h-7.5Zm27,29.6c-7.7,0-14.2-5-14.2-14.9s7.1-15.3,15.5-15.3a22,22,0,0,1,8,1.3l-1.9,5.9a15.4,15.4,0,0,0-5.6-1c-4.6,0-8.4,2.7-8.4,9.1s3.1,9,6.9,9a10.1,10.1,0,0,0,2.5-.2v-5.6H632V530h10.7v14.6C641,545.9,637.5,547.3,632.8,547.3Zm16.1-.6v-29h7.4l9.7,16.7V517.7h6.3v29h-6.6l-10.5-18.1v18.1Z" transform="translate(-19.6 -12.5)" fill="#e9ead6"/><path d="M607.8,808.9H713.3l40.1-69.4c6.7.1-24.1-6.7-18.8-4.3-44-19.7-63-81.4-80.2-86.2-11.3-3.2-12.6,12.4-26.2,6.1-21.2-10-31.3-31.7-45.1-30.6-24.5,2-49.6,30.6-49.6,30.6S487,693.9,444,728.8L490.3,809H607.8Z" transform="translate(-19.6 -12.5)" fill="#394e5d"/><path d="M692.3,717.1a8.6,8.6,0,0,0-1.1-1.9c-6.5-5.8-12.9-11.6-19.4-17.2-.9-.8-2.5-.6-3.8-.8.2,1.5,0,3.4.8,4.4a146.4,146.4,0,0,0,12.8,13.3c1.9,1.8,5.1,2.2,7.8,3C690.2,718.1,691.2,717.4,692.3,717.1ZM547.5,676.5c-.2.3-.5,1.5-.8,1.5a2.9,2.9,0,0,1-2.2-1c-3.8-6.6-8-4-12.8-1.2a156.8,156.8,0,0,1-16,7.7c-.9.4-2.1,0-3.2,0,.5-.9.6-2.1,1.3-2.7,6.2-5.6,12.3-11.3,18.8-16.6,3.2-2.6,8-3.6,10.7-6.5s11.9-8.8,15.9-6.9c7.2,3.4,8.5,26.2,4.2,31.5-1.2,1.4-3,2.3-4.6,3.4-.6-1.7-1.3-3.4-1.8-5.1-1-3.9-1.1-8-2.8-11.6s-4-3.9-6.2-5.8c-1,2.8-2.5,5.6-3,8.5C544.9,673,546.5,674.6,547.5,676.5Zm-.2,55.1c-.3,2,0,4.3-.8,6a21.5,21.5,0,0,1-4.5,5.8c-1,1-2.7,1.2-4.1,1.7a15.9,15.9,0,0,1,1.8-3.7,145.3,145.3,0,0,1,9.9-10.9,6,6,0,0,1,5-1.1c.8.2,1.8,3.2,1.3,4.2s-2.8,2-4.3,2.9Zm90.2,72.2c-11-12-23.1-17.8-34.8-29.3l-1.2-1.2-6.5-3.9c1.9-.5,3.8-1.7,5.6-1.5s8,.5,8.9,2.3c3,6.7,7.2,5.8,12.6,3.9,3.7-1.3,7.8-1.7,11.7-2.2,6.1-.6,13.8,1.9,14-8.7,0-1,2.9-2.5,4.6-2.9s2,2,3.2,2.9,4.8,3.2,7.2,4.6,3,.4,4,1.2c8.8,8.2,19.4,4.3,29.4,4.5,1.1,0,2.4-.8,3.6-1.3a25.7,25.7,0,0,0-2.8-2.9c-15.2-10.4-30.4-21-45.8-31.1s-29.3-22.2-37.5-39.6a24.5,24.5,0,0,0-5.3-6.7c-5.1-5-8-10.4-4.1-17.6.2-.4-1.2-2-2.2-2.7-3.2-2.4-8.5-8.8-11.3-12.7l-13.4-14.2c.7,17.1,13.1,38.3,19.2,52.9a58.4,58.4,0,0,0,10.9,17.2c4.7,5,11.4,8.2,16.7,12.7s12.4,11.7,18.7,17.4a16.9,16.9,0,0,0,5.5,3.2,48.1,48.1,0,0,0,6.6,1.3c-2.3,2.4-4.5,5-6.8,7.3-.4.3-2.3-.4-2.3-.2-3.7,11.8-9.3,2.9-12.7.5-13.1-9-25.6-18.7-38.4-28.1a63.7,63.7,0,0,0-10.9-6.7c-5.7-2.5-9.6.9-9.7,7.2-.2,9.2,9.4,35.2,17.4,46.4.6.8,1.7,1.9,2.5,1.8,12.4-.5,15.9,5.2,17.2,12.7a39.8,39.8,0,0,0,5.3,13.6ZM614.4,674.5c2,4.6,4,9.2,6.2,13.7.6,1.1,3,1.5,4.7,1.9,4.3,1.1,9.6.9,12.8,3.3,14.5,10.9,28.4,22.6,42.6,33.9,4.8,3.8,9.3,7.6,16.5,6.5,2.3-.4,6.1,2.5,7.6,5,7.5,12.3,21.3,14.7,32.6,21C744.5,763.7,614.4,674.5,614.4,674.5Zm-3.9-9.9c3.3.1,9.2-.5,9.5.5,2.4,8.3,10.9,7.3,15.9,11.4,1.7,1.4,4.7,1.1,7.2,1.6-.8-2.4-1.5-5-2.4-7.4s-2-4.1-2.8-6.2c-1.5-3.9-20.6-15.3-23.5-13-7.9,6.4-19.1.1-27.9-.7-.4,0,3,6.1,4.3,8l23.6,15.6-2-4.5C611.7,668.2,611.1,666.4,610.5,664.6Zm70.8,52.9-1.1-1.9c-6.4-5.8-12.8-11.6-19.4-17.2-.8-.7-2.5-.5-3.8-.7.3,1.4,0,3.4.9,4.3a146.6,146.6,0,0,0,12.7,13.4c2,1.7,5.1,2.2,7.8,3C679.2,718.6,680.2,717.9,681.3,717.5Zm-19.4,71.7,6.1,5.2a35,35,0,0,0,4.6,3.9c1.3.7,3.1.8,4.7,1.2-.5-1.3-1.1-2.6-1.6-4s-.7-1.8-1-2.7c2.5.9,5.3,1.5,7.4,3s1.8,4.4,1.3,4.8l-1.3,1h20c-8.2-4.2-16.3-8.7-24.5-12.8" transform="translate(-19.6 -12.5)" fill="#e9ead6"/></g></svg>