<?xml version="1.0" encoding="utf-8"?>
<!DOCTYPE svg PUBLIC "-//W3C//DTD SVG 1.1//EN" "http://www.w3.org/Graphics/SVG/1.1/DTD/svg11.dtd">
<!-- Generated by geo2svg 2.7.0. https://d3js.org/d3-geo-projection/ -->
<svg version="1.1" xmlns="http://www.w3.org/2000/svg" xmlns:xlink="http://www.w3.org/1999/xlink" viewBox="0 0 960 500" fill="none" stroke="black">
  <path fill="rgb(62, 76, 167)" d="M565.586555,86.512404L556.705509,86.628774L546.688246,94.299489L539.901859,98.576082L536.562772,99.74463L537.103828,110.17913L530.850768,114.242378L529.10393,117.738324L531.979256,121.142143L531.136754,125.864821L531.036272,135.058042L535.024627,138.515197L536.616877,138.62187L542.560763,142.321462L543.581039,144.290053L547.090173,147.359309L551.743254,149.914598L552.253392,151.441952L552.972223,158.041095L535.287426,158.462936L515.608451,159.146609L497.289845,159.650878L482.557666,159.631483L482.812735,142.127513L481.313238,124.216247L479.025344,122.747078L477.757728,119.852377L478.484289,117.32618L481.41372,115.265463L481.65333,112.555015L481.676518,109.170591L479.821469,103.313306L478.685252,94.265547L478.175114,86.318454L477.355801,80.335102L474.441828,73.105623L474.148112,66.12343L474.704627,61.623794L473.413822,57.133856L499.098517,57.206587L499.0676,50.127419L503.241459,49.986805L505.568,60.081893L509.494519,63.1463L518.228707,64.091805L531.06719,66.651943L543.457369,71.883739L553.49782,68.969643L569.227088,72.829244L570.602915,72.678933Z"></path>
  <path d="M241.787803,31.110639L278.162217,38.281934L314.745323,44.299227L351.498475,49.162518L388.390756,52.876657L385.700936,86.7209L384.441049,109.316053L382.323201,126.301208L360.456815,124.046541L336.866779,121.491252L290.87703,114.940598L289.431637,124.332617L289.091545,124.953257L287.823929,123.707129L286.973698,120.909403L285.636517,120.167545L283.170848,123.527726L280.071371,123.6247L272.875328,121.214874L272.210602,122.97012L268.044472,121.53974L265.169146,123.66349L262.602996,115.488506L260.036845,114.552698L259.495789,113.064133L259.565353,108.103867L257.702575,105.38372L257.323836,99.303394L256.264912,96.491122L254.804062,95.68623L252.995389,98.013628L250.04277,99.70584L248.102698,97.441476L248.906553,92.728495L250.622473,91.836326L250.475615,86.919698L254.834979,78.575008L251.063047,77.653746L248.342309,74.361448L244.485353,64.775478L241.965579,62.457778L240.265117,59.068505L240.953031,55.805299L238.719243,50.297125Z"></path>
  <path fill="rgb(97, 109, 187)" d="M473.413822,57.133856L474.704627,61.623794L474.148112,66.12343L474.441828,73.105623L477.355801,80.335102L478.175114,86.318454L478.685252,94.265547L479.821469,103.313306L481.676518,109.170591L481.65333,112.555015L456.927077,113.180503L435.818168,112.41925L409.205949,111.071299L384.441049,109.316053L385.700936,86.7209L388.390756,52.876657L431.250111,55.795602Z"></path>
  <path d="M332.321909,492.76938L332.80113,487.556979L329.85624,480.78813L330.729659,478.712867L333.775031,475.667855L332.546061,472.011901L333.558609,470.276051L334.895789,470.610614L344.789383,475.309048L347.672437,477.781908L352.217307,484.26953L351.799921,485.302312L344.928511,489.336469L339.293801,492.284506L336.72765,495.416795ZM331.154775,461.053737L329.693924,463.289009L323.804144,464.63696L320.774231,460.728871L318.749136,459.220911L318.594549,458.062061L320.310469,456.471673L326.5558,458.22207ZM317.752048,453.421812L317.210992,455.429192L307.812078,454.886133L309.126071,452.631466ZM293.775543,450.866523L290.892488,445.911105L295.584216,443.375211L297.045067,444.572852L302.076886,450.716212L301.126174,451.782936ZM264.604902,436.69364L268.206789,433.571048L272.226061,434.002587L272.542965,438.31797L270.456035,440.131401Z"></path>
  <path d="M241.787803,31.110639L238.719243,50.297125L240.953031,55.805299L240.265117,59.068505L241.965579,62.457778L244.485353,64.775478L248.342309,74.361448L251.063047,77.653746L254.834979,78.575008L250.475615,86.919698L250.622473,91.836326L248.906553,92.728495L248.102698,97.441476L250.04277,99.70584L252.995389,98.013628L254.804062,95.68623L256.264912,96.491122L257.323836,99.303394L257.702575,105.38372L259.565353,108.103867L259.495789,113.064133L260.036845,114.552698L262.602996,115.488506L265.169146,123.66349L268.044472,121.53974L272.210602,122.97012L272.875328,121.214874L280.071371,123.6247L283.170848,123.527726L285.636517,120.167545L286.973698,120.909403L287.823929,123.707129L289.091545,124.953257L289.508931,125.360551L282.142842,171.443027L241.617757,164.480229L201.24726,155.936739L208.84523,123.0477L211.148582,118.106828L210.630714,115.488506L208.48195,113.704167L209.169864,110.790072L211.929248,107.056538L215.515676,104.069711L221.428644,94.260699L223.237316,92.170889L223.160022,89.251945L221.35135,87.307598L219.133021,83.132828L219.967793,79.922959L219.426737,76.892493L224.752273,51.55295L229.869115,28.511712Z"></path>
  <path fill="rgb(100, 112, 189)" d="M229.869115,28.511712L224.752273,51.55295L219.426737,76.892493L219.967793,79.922959L219.133021,83.132828L193.007752,77.130081L188.014579,77.891334L184.992395,76.2864L182.155717,77.13493L176.96158,77.915578L171.334599,76.184576L168.072805,76.882795L165.259315,76.810064L163.535665,75.331197L159.253595,73.328665L156.23914,73.110472L150.844041,73.648682L147.736834,72.829244L145.031555,71.311587L144.822862,68.528407L145.363917,65.42521L144.042195,61.332869L140.726296,59.252757L138.191062,56.736259L131.690663,54.670693L133.839427,44.003453L134.643282,27.638938L133.677111,18.334196L136.196885,15.337671L151.771565,26.601306L153.379274,45.302917L157.754097,41.453013L159.987885,26.27644L160.096096,10.547111L194.051217,19.832458Z"></path>
  <path fill="rgb(97, 109, 187)" d="M296.565846,268.883413L282.026901,374.333927L250.885271,369.834291L217.5485,350.710839L195.983559,337.265269L198.140053,333.948727L200.13423,334.433601L202.545794,331.07827L200.358382,328.013862L200.226983,321.739586L204.022103,318.088481L206.889699,309.874706L212.192047,306.975156L210.051012,302.873118L208.791124,299.013517L207.902247,291.158549L209.533144,287.711091L209.517685,283.948465L210.723467,276.326237L209.919612,273.53336L211.372734,271.453248L214.456752,272.06419L218.877952,275.051017L221.142657,271.918728L223.902042,257.008836L247.383867,261.018748L275.379644,265.6493Z"></path>
  <path fill="rgb(87, 100, 182)" d="M207.902247,291.158549L208.791124,299.013517L210.051012,302.873118L212.192047,306.975156L206.889699,309.874706L204.022103,318.088481L200.226983,321.739586L200.358382,328.013862L202.545794,331.07827L200.13423,334.433601L198.140053,333.948727L178.291032,331.9268L160.606234,329.526671L160.17339,319.586743L152.822759,306.790904L146.345547,302.936152L145.974538,297.292212L137.827782,294.329629L133.738946,288.060201L120.44443,282.726581L117.460893,278.794249L118.318853,268.345202L109.213656,246.244621L104.467823,217.670965L106.168284,213.612565L101.716167,205.844875L95.463107,187.521466L98.00607,172.233372L93.785834,160.18424L101.306511,146.15682L105.557664,130.587499L161.425547,146.462291L147.303989,201.127046L167.740442,232.430546L188.068685,262.609137Z"></path>
  <path fill="rgb(87, 100, 182)" d="M402.952889,222.776694L401.244698,251.77704L399.474672,279.400342L385.299009,278.367559L367.676046,276.937179L342.686994,274.527353L319.498885,271.860543L296.565846,268.883413L306.784072,194.135155L334.563427,197.665042L362.404616,200.598533L376.348399,201.84466L404.181859,203.915074Z"></path>
  <path fill="rgb(68, 82, 170)" d="M201.24726,155.936739L241.617757,164.480229L223.902042,257.008836L221.142657,271.918728L218.877952,275.051017L214.456752,272.06419L211.372734,271.453248L209.919612,273.53336L210.723467,276.326237L209.517685,283.948465L209.533144,287.711091L207.902247,291.158549L188.068685,262.609137L167.740442,232.430546L147.303989,201.127046L161.425547,146.462291L201.23953,155.985227Z"></path>
  <path d="M282.026901,374.333927L296.565846,268.883413L319.498885,271.860543L342.686994,274.527353L367.676046,276.937179L385.299009,278.367559L384.634283,287.691696L378.404411,372.142294L363.81909,370.993141L335.568245,368.360272L321.462145,366.842615L321.446686,368.452399L322.87662,371.628327L295.684697,368.345726L294.656691,376.016441Z"></path>
  <path d="M219.133021,83.132828L221.35135,87.307598L223.160022,89.251945L223.237316,92.170889L221.428644,94.260699L215.515676,104.069711L211.929248,107.056538L209.169864,110.790072L208.48195,113.704167L210.630714,115.488506L211.148582,118.106828L208.84523,123.0477L201.24726,155.936739L201.23953,155.985227L161.425547,146.462291L105.557664,130.587499L105.619499,115.532144L115.868643,100.176168L128.823067,68.605987L131.690663,54.670693L138.191062,56.736259L140.726296,59.252757L144.042195,61.332869L145.363917,65.42521L144.822862,68.528407L145.031555,71.311587L147.736834,72.829244L150.844041,73.648682L156.23914,73.110472L159.253595,73.328665L163.535665,75.331197L165.259315,76.810064L168.072805,76.882795L171.334599,76.184576L176.96158,77.915578L182.155717,77.13493L184.992395,76.2864L188.014579,77.891334L193.007752,77.130081Z"></path>
  <path d="M241.617757,164.480229L282.142842,171.443027L279.190223,189.528847L306.784072,194.135155L296.565846,268.883413L275.379644,265.6493L247.383867,261.018748L223.902042,257.008836Z"></path>
  <path d="M289.091545,124.953257L289.431637,124.332617L290.87703,114.940598L336.866779,121.491252L360.456815,124.046541L382.323201,126.301208L379.416958,164.431741L376.348399,201.84466L362.404616,200.598533L334.563427,197.665042L306.784072,194.135155L279.190223,189.528847L282.142842,171.443027L289.508931,125.360551Z"></path>
  <path fill="rgb(52, 67, 161)" d="M583.42594,297.3407L582.026924,301.66578L579.522608,303.663463L579.136139,306.815148L576.910081,309.43347L577.435678,314.893158L575.812511,316.750227L575.611547,318.258187L572.991291,319.824332L573.091772,322.554175L571.344935,327.703543L567.086052,331.572842L565.671578,335.534267L562.657123,342.259476L562.525724,346.730019L564.566278,351.569067L564.002034,355.302601L550.838917,355.278358L533.872951,356.524485L518.854786,356.873595L519.527241,346.182111L512.957277,346.487582L512.130234,345.265698L512.300281,328.799359L512.323469,310.480799L509.038487,290.600944L527.117482,290.494271L543.542392,289.999699L559.225283,289.311177L576.206708,289.519673L577.582536,291.77434L574.483059,296.031538L573.679205,297.961339Z"></path>
  <path fill="rgb(59, 73, 165)" d="M482.557666,159.631483L497.289845,159.650878L515.608451,159.146609L535.287426,158.462936L552.972223,158.041095L555.120988,161.939486L553.9925,163.418353L554.232111,167.360383L555.901654,171.937599L560.446524,173.498895L561.938292,176.291772L564.481255,178.536741L565.254192,180.524727L569.010665,183.438823L568.58555,188.530005L565.439697,194.343651L562.33249,195.609174L557.617574,196.792268L556.543192,200.089414L558.351865,201.461609L559.093884,204.346613L557.439799,207.697096L556.651403,210.601494L553.196375,213.573775L553.080435,217.026082L548.257308,212.618572L532.914509,213.622263L516.752397,214.199263L491.523735,214.514432L490.596211,211.105764L490.982679,207.735886L490.673504,204.487226L489.235842,199.06148L487.311229,196.200721L487.218476,191.851396L486.352787,188.733653L483.86393,185.184371L483.894847,183.632773L482.433996,178.653111L482.457184,176.931807L480.262044,174.8323L481.375073,171.758195L482.433996,166.7155L480.718076,164.208699L480.756723,159.631483Z"></path>
  <path fill="rgb(62, 76, 167)" d="M399.474672,279.400342L401.244698,251.77704L402.952889,222.776694L427.717789,224.124645L446.136877,224.832562L478.739358,225.45805L498.256016,225.45805L501.649209,227.945456L503.496529,227.887271L503.937103,230.612266L501.966113,234.127607L504.880086,239.849126L508.675206,241.584977L508.99984,281.941084L496.045416,282.086547L469.456385,282.004118L442.875083,281.431966L428.111987,280.888907L413.35662,280.195536Z"></path>
  <path fill="rgb(84, 97, 180)" d="M583.42594,297.3407L573.679205,297.961339L574.483059,296.031538L577.582536,291.77434L576.206708,289.519673L559.225283,289.311177L543.542392,289.999699L527.117482,290.494271L509.038487,290.600944L508.99984,281.941084L508.675206,241.584977L504.880086,239.849126L501.966113,234.127607L503.937103,230.612266L503.496529,227.887271L501.649209,227.945456L498.256016,225.45805L496.400967,221.443289L491.809722,216.06603L491.523735,214.514432L516.752397,214.199263L532.914509,213.622263L548.257308,212.618572L553.080435,217.026082L552.075616,221.763306L553.606032,227.334514L556.148994,231.092292L559.039779,234.15185L563.824258,237.293837L565.215545,240.814026L565.625201,243.946316L567.310204,244.639686L569.953648,243.267492L572.87535,246.128251L572.272459,249.653289L570.363305,255.835439L572.589363,258.541039L575.634735,261.023597L577.28882,260.989656L581.369927,264.873501L582.884884,265.329283L584.2839,269.804675L583.936078,272.670283L586.138948,277.160221L587.692552,276.558977L590.513772,279.288821L590.683818,284.147263L585.2578,288.089293Z"></path>
  <path fill="rgb(71, 85, 172)" d="M402.952889,222.776694L404.181859,203.915074L376.348399,201.84466L379.416958,164.431741L405.866861,166.405181L426.210562,167.554333L453.433402,168.582267L456.8807,171.050279L461.850685,172.650365L463.041008,171.821229L471.141387,171.835775L474.635062,174.294089L478.360619,175.903873L480.138374,178.381581L482.433996,178.653111L483.894847,183.632773L483.86393,185.184371L486.352787,188.733653L487.218476,191.851396L487.311229,196.200721L489.235842,199.06148L490.673504,204.487226L490.982679,207.735886L490.596211,211.105764L491.523735,214.514432L491.809722,216.06603L496.400967,221.443289L498.256016,225.45805L478.739358,225.45805L446.136877,224.832562L427.717789,224.124645Z"></path>
  <path fill="rgb(46, 61, 157)" d="M607.340609,314.893158L645.740117,311.465095L652.263705,334.249349L658.014356,352.398203L662.667437,361.155037L660.472296,364.728562L660.279062,370.755553L661.531219,374.169069L661.438467,380.613052L663.749548,384.976923L631.378949,388.497112L622.381962,390.392971L622.258292,391.837897L626.300753,396.04176L625.790614,399.794688L624.855361,402.451801L610.455545,401.593573L607.672972,373.112043L608.005335,342.967393L608.716437,318.43759Z"></path>
  <path fill="rgb(75, 88, 174)" d="M160.984973,468.637175L163.288326,469.044469L164.811011,471.042152L161.835204,474.218081L158.295153,476.744277L156.478751,475.047216L155.960883,471.973111ZM118.434794,449.057941L120.838628,450.10527L120.707228,452.636315L118.550734,453.281198L115.087977,449.542816ZM107.81464,423.74749L109.213656,425.415459L111.130539,425.211811L112.993318,427.456781L115.621303,428.96474L112.738248,430.453305L110.110263,427.107671L106.995327,426.079737ZM188.076414,389.035323L199.987372,449.232496L203.140955,448.776714L206.619172,449.867681L213.405558,455.618293L215.616158,451.249574L218.228685,448.316083L220.8644,451.084717L227.643057,454.89583L236.987865,464.607867L244.207096,466.416449L245.760699,470.242109L244.910469,473.922307L242.135625,472.317372L238.348234,471.439749L235.527014,466.372811L229.490376,462.77989L225.849843,457.436573L217.262513,459.30334L212.918608,458.479053L204.624994,453.421812L195.23381,451.593835L190.882175,452.869055L184.173082,450.750153L180.091975,448.398512L176.714241,450.114967L177.780894,454.600057L172.339417,456.811085L169.564574,459.191819L165.939499,460.738569L165.336609,456.893513L166.565578,450.410741L169.835102,448.233654L168.884389,446.638417L165.011975,450.45438L162.932775,454.876435L158.256506,459.594265L160.714445,462.765344L157.514486,467.488022L153.765742,470.188773L150.217962,472.09433L149.236332,474.959939L143.485681,478.058287L142.14077,481.049963L137.650007,483.513125L135.168879,482.785814L127.532262,486.024775L124.146798,487.78487L117.429976,488.657644L117.020319,487.479399L121.565188,485.103514L125.460791,483.619798L129.812426,480.560239L134.403671,480.317802L136.436496,477.81585L141.700196,474.310207L145.309812,470.906387L146.175501,465.975213L148.092385,462.193192L144.096301,463.962984L143.083753,462.765344L141.074117,465.015162L139.141775,461.519217L138.028746,463.783581L137.078033,460.408854L133.452959,462.673218L131.389217,462.430781L131.574722,458.517843L132.45587,456.200143L130.654927,453.625459L126.272375,454.284888L124.030857,450.818036L122.121703,448.902781L122.740053,445.23713L120.854086,442.061201L122.701406,438.565256L125.754507,435.37963L127.339028,432.227946L129.76605,432.116425L131.621098,433.440132L134.372754,430.613314L136.405578,431.423054L138.817141,429.643565L138.600719,426.613099L137.155327,425.269996L139.489597,422.981389L137.781406,422.874716L134.66647,423.936591L133.623005,425.260299L131.621098,423.524448L127.578638,423.635969L123.814435,421.376454L123.165168,418.573879L120.552641,414.161521L124.788336,412.241418L131.118689,410.127365L133.236537,410.447382L132.409494,413.618461L137.997828,414.098487L136.374661,409.83644L133.576629,406.946588L132.285824,403.465189L130.392129,400.347445L127.447239,397.724274L129.410499,394.645321L133.607546,395.154439L136.977551,392.681579L137.951452,389.651113L140.633543,386.916421L142.87506,386.426698L147.303989,383.973232L149.282708,384.540536L152.791842,381.311271L156.007259,382.736802L157.560863,385.641201L158.534763,384.404771L162.244861,384.734485L162.152108,386.208504L165.591678,387.168556L167.825466,386.402454L172.687239,388.04133L177.062062,388.162548L178.909382,388.763793L181.738331,387.289774Z"></path>
  <path fill="rgb(71, 85, 172)" d="M795.604865,150.33159L818.46834,145.395567L821.16589,155.320949L821.04222,158.205952L815.330216,160.654569L807.701328,163.525026L798.418355,170.943606L797.143009,168.291342L799.670513,165.799087L798.23285,164.494775Z"></path>
  <path fill="rgb(71, 85, 172)" d="M789.668709,221.452986L780.246607,223.518552L774.140405,200.25912L775.956807,197.475941L779.156766,197.776563L777.51041,200.147599L778.662086,203.614452L783.748012,212.894951L787.968247,215.392055Z"></path>
  <path fill="rgb(97, 109, 187)" d="M624.855361,402.451801L625.790614,399.794688L626.300753,396.04176L622.258292,391.837897L622.381962,390.392971L631.378949,388.497112L663.749548,384.976923L666.748544,389.704449L682.841091,388.589238L708.989549,387.827985L710.643634,390.892392L712.452306,388.933499L711.540241,382.489516L713.356643,381.577952L716.688001,382.470121L720.081194,382.300415L724.881133,394.703506L732.718713,409.647339L742.017145,421.512219L743.408432,429.435069L754.731958,449.402202L756.293291,461.810141L756.764782,469.034772L754.438242,480.860862L749.769703,483.988302L741.105079,483.110679L737.186289,475.522393L730.160292,472.293129L718.975894,457.853565L709.260077,444.897718L705.78186,438.036743L707.420487,425.328181L701.453413,415.810094L686.821717,402.010565L680.205376,399.964395L665.009436,410.335861L662.01817,409.739465L653.260794,401.937834L642.733393,398.383704Z"></path>
  <path fill="rgb(100, 112, 189)" d="M663.749548,384.976923L661.438467,380.613052L661.531219,374.169069L660.279062,370.755553L660.472296,364.728562L662.667437,361.155037L658.014356,352.398203L652.263705,334.249349L645.740117,311.465095L657.380548,310.311093L665.388175,309.152243L684.131896,306.863635L682.701963,308.638276L680.761891,312.502726L685.252655,315.048317L688.035228,315.824117L693.955925,324.372455L699.89981,328.028409L701.283367,330.1861L705.356745,332.683204L707.806955,336.843428L713.287078,339.844801L716.270615,345.833002L715.953711,347.282776L719.15367,348.863467L721.217411,352.097581L721.750738,355.637165L726.102373,356.62146L720.475392,368.767567L720.081194,382.300415L716.688001,382.470121L713.356643,381.577952L711.540241,382.489516L712.452306,388.933499L710.643634,390.892392L708.989549,387.827985L682.841091,388.589238L666.748544,389.704449Z"></path>
  <path fill="rgb(68, 82, 170)" d="M553.080435,217.026082L553.196375,213.573775L556.651403,210.601494L557.439799,207.697096L559.093884,204.346613L558.351865,201.461609L556.543192,200.089414L557.617574,196.792268L562.33249,195.609174L565.439697,194.343651L568.58555,188.530005L569.010665,183.438823L565.254192,180.524727L564.481255,178.536741L561.938292,176.291772L575.874345,175.428696L600.623787,173.741332L611.081624,172.824919L609.875842,186.760213L605.748359,187.133567L605.763818,188.122711L609.620773,231.582015L608.461368,236.949576L609.752172,238.229645L610.795637,241.371632L610.911578,243.907526L609.814007,245.153653L609.04107,248.358674L606.405355,252.712847L604.797647,257.939795L604.650789,261.775152L604.867211,263.171591L603.429548,265.925678L604.828564,267.588798L599.186124,271.012012L600.082731,275.075261L598.274059,276.782019L594.587149,275.312849L590.598795,274.590386L589.740835,276.481397L590.513772,279.288821L587.692552,276.558977L586.138948,277.160221L583.936078,272.670283L584.2839,269.804675L582.884884,265.329283L581.369927,264.873501L577.28882,260.989656L575.634735,261.023597L572.589363,258.541039L570.363305,255.835439L572.272459,249.653289L572.87535,246.128251L569.953648,243.267492L567.310204,244.639686L565.625201,243.946316L565.215545,240.814026L563.824258,237.293837L559.039779,234.15185L556.148994,231.092292L553.606032,227.334514L552.075616,221.763306Z"></path>
  <path fill="rgb(107, 118, 193)" d="M604.650789,261.775152L604.797647,257.939795L606.405355,252.712847L609.04107,248.358674L609.814007,245.153653L610.911578,243.907526L610.795637,241.371632L609.752172,238.229645L608.461368,236.949576L609.620773,231.582015L605.763818,188.122711L605.748359,187.133567L609.875842,186.760213L630.157708,184.898295L643.081214,183.346697L643.25899,184.811018L648.708195,232.939664L647.989364,233.919111L649.604802,237.609006L649.148769,239.068478L646.744935,239.378798L644.696652,241.294052L641.226165,241.003127L641.318918,244.639686L639.44841,246.230075L637.902537,249.662987L635.923818,250.467878L633.334479,256.393045L630.227273,255.088733L629.075596,252.882554L625.535545,259.122889L622.196458,257.227029L619.019687,259.336234L618.092162,261.266034L613.354059,258.817418L610.424628,261.149664L606.544484,260.015058L606.575402,262.104867Z"></path>
  <path fill="rgb(62, 76, 167)" d="M585.2578,288.089293L590.683818,284.147263L590.513772,279.288821L589.740835,276.481397L590.598795,274.590386L594.587149,275.312849L598.274059,276.782019L600.082731,275.075261L599.186124,271.012012L604.828564,267.588798L603.429548,265.925678L604.867211,263.171591L604.650789,261.775152L606.575402,262.104867L606.544484,260.015058L610.424628,261.149664L613.354059,258.817418L618.092162,261.266034L619.019687,259.336234L622.196458,257.227029L625.535545,259.122889L629.075596,252.882554L630.227273,255.088733L633.334479,256.393045L635.923818,250.467878L637.902537,249.662987L639.44841,246.230075L641.318918,244.639686L641.226165,241.003127L644.696652,241.294052L646.744935,239.378798L649.148769,239.068478L649.604802,237.609006L647.989364,233.919111L648.708195,232.939664L653.639533,232.789353L656.383459,234.282766L660.704177,238.035695L666.315699,240.203085L669.654787,239.228487L672.321419,239.970345L677.917483,237.836897L679.42471,240.295211L682.346412,241.706196L683.273936,247.33074L685.407242,249.99755L686.504813,252.732242L690.748237,256.897315L693.623562,256.824584L688.62266,263.234625L684.379236,266.071141L682.957032,269.814372L679.254664,272.592703L678.188011,274.590386L676.070164,275.749237L671.20839,277.776012L661.314797,279.652477L648.221245,280.389486L644.001009,281.097403L635.475514,281.480454L618.84964,282.872043L609.643961,284.224843L609.095176,283.410254L606.165745,283.701179L606.459461,286.649216Z"></path>
  <path fill="rgb(52, 67, 161)" d="M518.854786,356.873595L533.872951,356.524485L550.838917,355.278358L564.002034,355.302601L565.169169,356.320838L563.893823,359.104018L566.351762,362.847249L565.833894,365.203739L568.021306,368.321482L565.949835,370.348258L565.40105,373.926632L562.502536,377.005585L560.052326,385.592713L558.205007,387.7698L559.070696,392.414898L573.153607,392.293679L588.164043,391.420905L587.058743,397.690333L588.225878,399.983789L590.482854,402.010565L591.88187,407.179328L595.120476,411.940795L595.375545,419.519384L599.085642,422.957145L596.156211,425.619106L589.934069,423.282011L584.052019,427.204646L572.187436,427.306469L559.565376,418.059912L545.513382,420.974008L533.579235,417.041676L523.538784,418.612669L522.35619,416.614986L523.940711,413.841504L526.298169,411.310459L526.251793,407.576925L525.046011,406.35989L527.310716,399.804386L528.678815,392.919168L525.254704,386.179412L522.858599,378.993571L520.222884,376.932854Z"></path>
  <path fill="rgb(36, 52, 152)" d="M828.508791,121.77248L827.179339,122.330085L825.888535,119.968746L822.75814,117.932273L822.765869,116.017019L812.006587,83.249198L816.62875,79.001697L818.847079,69.590282L818.746597,54.564021L824.280826,38.403152L829.714573,41.908795L837.003368,36.453957L843.975259,39.935356L851.395454,64.22757L862.703522,71.777067L866.715065,76.94098L855.855301,89.795004L844.539503,99.89979L832.435311,109.126952Z"></path>
  <path fill="rgb(81, 94, 178)" d="M786.777924,230.466804L783.531589,231.475343L782.186679,232.983303L773.406115,227.489674L768.528883,212.507051L767.485418,221.055389L772.957812,232.134772L762.948278,231.184418L762.662291,230.665602L761.595638,228.750348L759.446874,230.015871L757.359944,229.385534L758.148339,224.944083L760.212081,222.718509L760.165705,221.171759L761.665203,219.154681L759.48552,217.603082L758.519349,218.723143L755.481707,217.181242L752.289477,216.657577L752.931015,214.465944L748.610297,213.219817L744.822906,208.758971L740.223931,208.114088L736.513834,211.682764L732.231763,211.702159L730.709077,213.985918L728.057904,215.222349L724.154572,219.838354L722.616427,210.392998L735.609498,208.0656L761.889354,202.896838L774.140405,200.25912L780.246607,223.518552L789.668709,221.452986L789.738273,222.301517Z"></path>
  <path fill="rgb(110, 121, 195)" d="M818.46834,145.395567L795.604865,150.33159L795.434818,137.046028L806.418253,134.636201L822.410318,130.655381L823.291466,128.507387L825.749406,126.529099L827.403491,126.451519L829.876889,136.105371L836.887428,144.527642L842.537597,143.446371L839.298991,137.220582L844.408104,140.12983L844.794573,145.604063L836.593712,151.039507L830.054665,152.426248L828.949365,149.744892L826.290462,148.217537L824.033486,143.717901Z"></path>
  <path fill="rgb(68, 82, 170)" d="M565.586555,86.512404L570.602915,72.678933L573.323654,72.368614L584.144771,66.293136L622.984853,84.233493L630.884269,87.811867L632.692941,92.524848L635.931547,93.98432L635.367303,95.909272L638.868708,96.059583L641.125684,93.838858L642.316007,98.134846L645.276355,100.738622L648.808677,100.277992L650.988359,102.290221L649.836683,105.786166L664.514756,112.622897L674.717524,144.755533L672.398713,156.300395L667.490563,167.428266L665.403634,174.361972L665.364987,176.345108L661.678077,182.187847L656.522588,183.031528L643.25899,184.811018L643.081214,183.346697L630.157708,184.898295L609.875842,186.760213L611.081624,172.824919L608.051711,157.376817L607.649784,151.170423L608.353157,142.942102L611.197565,128.463748L613.184013,124.599298L616.391701,120.793033L609.319328,117.267995L604.867211,117.694685L603.460466,120.870613L601.350348,123.052548L601.025714,125.258728L598.931055,124.676878L596.990983,122.635556L597.694356,119.556603L594.811301,119.639032L595.80839,114.998782L594.432562,112.491981L591.26352,111.57072L590.297349,108.569346L584.090665,108.797237L576.384484,106.009209L564.867723,103.439374L563.623295,100.161622L560.755699,99.385823Z"></path>
  <path fill="rgb(49, 64, 159)" d="M564.002034,355.302601L564.566278,351.569067L562.525724,346.730019L562.657123,342.259476L565.671578,335.534267L567.086052,331.572842L571.344935,327.703543L573.091772,322.554175L572.991291,319.824332L575.611547,318.258187L575.812511,316.750227L590.722464,315.761083L607.340609,314.893158L608.716437,318.43759L608.005335,342.967393L607.672972,373.112043L610.455545,401.593573L598.312705,403.80945L591.88187,407.179328L590.482854,402.010565L588.225878,399.983789L587.058743,397.690333L588.164043,391.420905L573.153607,392.293679L559.070696,392.414898L558.205007,387.7698L560.052326,385.592713L562.502536,377.005585L565.40105,373.926632L565.949835,370.348258L568.021306,368.321482L565.833894,365.203739L566.351762,362.847249L563.893823,359.104018L565.169169,356.320838Z"></path>
  <path d="M827.403491,126.451519L825.749406,126.529099L823.291466,128.507387L822.410318,130.655381L806.418253,134.636201L804.880108,133.011871L805.328411,130.3887L804.439534,125.530257L803.906207,119.87662L805.073342,114.029033L805.513916,109.32575L805.026966,104.45761L807.291671,102.939953L809.63367,100.084042L809.540918,97.698459L807.910021,95.351666L808.087796,90.037442L808.188278,85.242032L812.006587,83.249198L822.765869,116.017019L822.75814,117.932273L825.888535,119.968746L827.179339,122.330085L828.508791,121.77248Z"></path>
  <path fill="rgb(110, 121, 195)" d="M778.662086,203.614452L777.51041,200.147599L779.156766,197.776563L781.630164,195.463711L785.100651,190.925286L786.422373,188.520308L781.011815,184.738287L780.33936,182.847276L778.723921,182.604839L778.12876,179.632558L779.22633,177.028782L777.966443,174.798359L779.782845,172.698852L781.228237,168.053754L782.704547,166.865811L794.793281,171.70001L795.16429,175.666284L792.188483,181.727216L796.424178,181.620543L796.540118,195.497653L789.645521,211.978538L787.535403,207.483751L784.250421,207.212221Z"></path>
  <path fill="rgb(84, 97, 180)" d="M795.604865,150.33159L798.23285,164.494775L799.670513,165.799087L797.143009,168.291342L798.418355,170.943606L797.684065,171.573943L816.75242,163.209857L821.65284,165.63423L803.983501,175.889326L795.28796,178.013077L795.16429,175.666284L794.793281,171.70001L782.704547,166.865811L777.626351,165.309364L776.150041,162.836504L776.057289,160.732148L770.507601,157.192564L752.196725,161.061863L732.502291,164.960254L711.354736,168.785914L709.437852,158.700524L719.594244,150.845557L719.51695,148.920605L717.290892,143.509405L714.49286,140.265594L719.942065,136.250833L745.039329,131.309962L747.767796,123.285288L749.104977,121.515496L760.003388,105.378872L765.066125,100.719227L784.544137,96.020793L785.232051,102.227187L786.847489,107.555958L788.231046,110.154886L787.836848,114.242378L790.186576,118.712921L790.410728,122.194321L792.319882,121.874303L795.434818,137.046028Z"></path>
  <path fill="rgb(81, 94, 178)" d="M684.131896,306.863635L665.388175,309.152243L665.233587,305.156877L668.2635,303.581035L670.883757,298.906844L677.245028,296.700665L680.437257,294.630251L681.689415,292.77803L684.317401,290.896717L684.046873,289.558463L687.424608,286.508602L688.854541,287.977772L693.824526,283.672086L696.421594,283.662389L698.237996,280.200385L701.113321,278.934862L700.564536,273.906713L694.87572,275.046168L700.564536,273.906713L725.445377,270.730785L754.608288,265.547476L785.595331,258.982275L791.631969,276.975969L785.131569,292.647114L770.809047,301.268183L763.033301,314.030081L755.705859,316.633857L735.709979,302.13126L719.022271,304.735036L718.713096,302.562798L715.868688,299.789316L714.554695,301.263334L714.175956,299.634156L707.041748,299.871745L693.206176,301.767604Z"></path>
  <path fill="rgb(52, 67, 161)" d="M648.708195,232.939664L643.25899,184.811018L656.522588,183.031528L661.678077,182.187847L665.364987,176.345108L667.258682,178.798574L672.321419,181.09203L675.760989,180.602307L690.114428,168.296191L700.093044,164.489926L705.194428,195.764334L703.424403,197.01531L704.398303,199.279674L704.444679,203.667788L703.08431,212.977379L703.153875,214.936273L699.992563,219.794715L696.684392,221.773003L694.906637,221.622692L692.240005,225.312588L692.000394,230.646207L690.840989,231.572318L690.354039,229.521299L688.359861,229.351592L686.945387,233.69122L687.324126,237.861141L685.840087,240.7219L682.346412,241.706196L679.42471,240.295211L677.917483,237.836897L672.321419,239.970345L669.654787,239.228487L666.315699,240.203085L660.704177,238.035695L656.383459,234.282766L653.639533,232.789353Z"></path>
  <path fill="rgb(78, 91, 176)" d="M385.299009,278.367559L399.474672,279.400342L413.35662,280.195536L428.111987,280.888907L442.875083,281.431966L469.456385,282.004118L496.045416,282.086547L508.99984,281.941084L509.038487,290.600944L512.323469,310.480799L512.300281,328.799359L512.130234,345.265698L505.44433,341.672778L501.108153,339.718734L497.614478,341.018197L489.003961,340.872735L483.786636,343.185587L481.52966,342.249779L476.3819,343.234074L474.078548,340.072692L471.643796,342.768595L467.462207,341.498223L463.195595,338.501699L458.550244,340.295734L456.625631,335.723368L449.475964,335.994897L439.837441,333.352331L437.704135,329.37636L433.638486,330.481874L427.655954,326.685306L429.194099,290.276078L414.330521,289.568161L399.474672,288.709933L384.634283,287.691696Z"></path>
  <path fill="rgb(81, 94, 178)" d="M705.194428,195.764334L700.093044,164.489926L703.602178,163.12258L709.437852,158.700524L711.354736,168.785914L732.502291,164.960254L752.196725,161.061863L770.507601,157.192564L776.057289,160.732148L776.150041,162.836504L777.626351,165.309364L782.704547,166.865811L781.228237,168.053754L779.782845,172.698852L777.966443,174.798359L779.22633,177.028782L778.12876,179.632558L778.723921,182.604839L780.33936,182.847276L781.011815,184.738287L786.422373,188.520308L785.100651,190.925286L781.630164,195.463711L779.156766,197.776563L775.956807,197.475941L774.140405,200.25912L761.889354,202.896838L735.609498,208.0656L722.616427,210.392998L708.007919,212.875556Z"></path>
  <path fill="rgb(81, 94, 178)" d="M821.04222,158.205952L821.16589,155.320949L818.46834,145.395567L824.033486,143.717901L826.290462,148.217537L828.949365,149.744892L830.054665,152.426248Z"></path>
  <path fill="rgb(55, 70, 163)" d="M726.102373,356.62146L721.750738,355.637165L721.217411,352.097581L719.15367,348.863467L715.953711,347.282776L716.270615,345.833002L713.287078,339.844801L707.806955,336.843428L705.356745,332.683204L701.283367,330.1861L699.89981,328.028409L693.955925,324.372455L688.035228,315.824117L685.252655,315.048317L680.761891,312.502726L682.701963,308.638276L684.131896,306.863635L693.206176,301.767604L707.041748,299.871745L714.175956,299.634156L714.554695,301.263334L715.868688,299.789316L718.713096,302.562798L719.022271,304.735036L735.709979,302.13126L755.705859,316.633857L749.259564,324.842783L748.192911,331.441925L733.398898,346.371212Z"></path>
  <path d="M481.65333,112.555015L481.41372,115.265463L478.484289,117.32618L477.757728,119.852377L479.025344,122.747078L481.313238,124.216247L482.812735,142.127513L482.557666,159.631483L480.756723,159.631483L480.718076,164.208699L482.433996,166.7155L481.375073,171.758195L480.262044,174.8323L482.457184,176.931807L482.433996,178.653111L480.138374,178.381581L478.360619,175.903873L474.635062,174.294089L471.141387,171.835775L463.041008,171.821229L461.850685,172.650365L456.8807,171.050279L453.433402,168.582267L426.210562,167.554333L405.866861,166.405181L379.416958,164.431741L382.323201,126.301208L384.441049,109.316053L409.205949,111.071299L435.818168,112.41925L456.927077,113.180503Z"></path>
  <path fill="rgb(55, 70, 163)" d="M575.812511,316.750227L577.435678,314.893158L576.910081,309.43347L579.136139,306.815148L579.522608,303.663463L582.026924,301.66578L583.42594,297.3407L585.2578,288.089293L606.459461,286.649216L606.165745,283.701179L609.095176,283.410254L609.643961,284.224843L618.84964,282.872043L635.475514,281.480454L644.001009,281.097403L648.221245,280.389486L661.314797,279.652477L671.20839,277.776012L676.070164,275.749237L671.20839,277.776012L693.175259,275.380732L694.87572,275.046168L700.564536,273.906713L701.113321,278.934862L698.237996,280.200385L696.421594,283.662389L693.824526,283.672086L688.854541,287.977772L687.424608,286.508602L684.046873,289.558463L684.317401,290.896717L681.689415,292.77803L680.437257,294.630251L677.245028,296.700665L670.883757,298.906844L668.2635,303.581035L665.233587,305.156877L665.388175,309.152243L657.380548,310.311093L645.740117,311.465095L607.340609,314.893158L590.722464,315.761083Z"></path>
  <path fill="rgb(75, 88, 174)" d="M322.87662,371.628327L321.446686,368.452399L321.462145,366.842615L335.568245,368.360272L363.81909,370.993141L378.404411,372.142294L384.634283,287.691696L399.474672,288.709933L414.330521,289.568161L429.194099,290.276078L427.655954,326.685306L433.638486,330.481874L437.704135,329.37636L439.837441,333.352331L449.475964,335.994897L456.625631,335.723368L458.550244,340.295734L463.195595,338.501699L467.462207,341.498223L471.643796,342.768595L474.078548,340.072692L476.3819,343.234074L481.52966,342.249779L483.786636,343.185587L489.003961,340.872735L497.614478,341.018197L501.108153,339.718734L505.44433,341.672778L512.130234,345.265698L512.957277,346.487582L519.527241,346.182111L518.854786,356.873595L520.222884,376.932854L522.858599,378.993571L525.254704,386.179412L528.678815,392.919168L527.310716,399.804386L525.046011,406.35989L526.251793,407.576925L526.298169,411.310459L523.940711,413.841504L522.35619,416.614986L523.538784,418.612669L509.958282,423.223826L495.218374,437.188212L478.870757,445.208037L469.75783,454.00851L465.823581,462.31926L465.475759,475.124796L466.186861,484.027092L469.324986,490.364403L462.693186,490.829882L450.743581,486.519347L437.727323,480.414777L433.313853,471.551271L430.106164,458.430566L420.753627,447.443309L415.559491,436.276648L408.000167,423.112305L396.993545,415.043992L383.753135,414.563967L372.460526,428.5429L359.397891,421.890421L351.506205,415.543413L348.422186,404.948905L344.024175,394.722901L335.37501,385.597562L327.90071,378.862655Z"></path>
  <path d="M806.418253,134.636201L795.434818,137.046028L792.319882,121.874303L790.410728,122.194321L790.186576,118.712921L787.836848,114.242378L788.231046,110.154886L786.847489,107.555958L785.232051,102.227187L784.544137,96.020793L808.087796,90.037442L807.910021,95.351666L809.540918,97.698459L809.63367,100.084042L807.291671,102.939953L805.026966,104.45761L805.513916,109.32575L805.073342,114.029033L803.906207,119.87662L804.439534,125.530257L805.328411,130.3887L804.880108,133.011871Z"></path>
  <path fill="rgb(84, 97, 180)" d="M676.070164,275.749237L678.188011,274.590386L679.254664,272.592703L682.957032,269.814372L684.379236,266.071141L688.62266,263.234625L693.623562,256.824584L694.744321,259.898688L699.072768,262.507313L703.316191,259.549578L705.271722,260.592059L710.44267,258.172535L710.489046,256.456079L712.235884,256.853676L713.812675,255.200254L715.876417,255.13722L717.932429,253.314092L717.360456,249.415701L718.774931,245.871268L721.140118,242.971718L721.379728,240.10611L723.265694,236.377424L723.93042,232.100831L728.428913,234.161548L730.345797,233.080278L732.819195,225.792613L733.98633,226.379312L739.38143,218.495252L739.566935,213.355582L747.705961,217.001838L748.610297,213.219817L752.931015,214.465944L752.289477,216.657577L755.481707,217.181242L758.519349,218.723143L760.165705,221.171759L760.212081,222.718509L758.148339,224.944083L757.359944,229.385534L759.446874,230.015871L761.595638,228.750348L762.662291,230.665602L762.948278,231.184418L773.993547,235.102204L778.306535,252.528595L782.727735,252.926192L785.595331,258.982275L754.608288,265.547476L725.445377,270.730785L700.564536,273.906713L694.87572,275.046168L693.175259,275.380732L671.20839,277.776012ZM786.777924,230.466804L781.92388,246.933143L780.4553,246.48221L782.186679,232.983303L783.531589,231.475343Z"></path>
  <path fill="rgb(78, 91, 176)" d="M693.623562,256.824584L690.748237,256.897315L686.504813,252.732242L685.407242,249.99755L683.273936,247.33074L682.346412,241.706196L685.840087,240.7219L687.324126,237.861141L686.945387,233.69122L688.359861,229.351592L690.354039,229.521299L690.840989,231.572318L692.000394,230.646207L692.240005,225.312588L694.906637,221.622692L696.684392,221.773003L699.992563,219.794715L703.153875,214.936273L703.08431,212.977379L704.444679,203.667788L704.398303,199.279674L703.424403,197.01531L705.194428,195.764334L708.007919,212.875556L722.616427,210.392998L724.154572,219.838354L728.057904,215.222349L730.709077,213.985918L732.231763,211.702159L736.513834,211.682764L740.223931,208.114088L744.822906,208.758971L748.610297,213.219817L747.705961,217.001838L739.566935,213.355582L739.38143,218.495252L733.98633,226.379312L732.819195,225.792613L730.345797,233.080278L728.428913,234.161548L723.93042,232.100831L723.265694,236.377424L721.379728,240.10611L721.140118,242.971718L718.774931,245.871268L717.360456,249.415701L717.932429,253.314092L715.876417,255.13722L713.812675,255.200254L712.235884,256.853676L710.489046,256.456079L710.44267,258.172535L705.271722,260.592059L703.316191,259.549578L699.072768,262.507313L694.744321,259.898688Z"></path>
  <path fill="rgb(43, 58, 155)" d="M552.972223,158.041095L552.253392,151.441952L551.743254,149.914598L547.090173,147.359309L543.581039,144.290053L542.560763,142.321462L536.616877,138.62187L535.024627,138.515197L531.036272,135.058042L531.136754,125.864821L531.979256,121.142143L529.10393,117.738324L530.850768,114.242378L537.103828,110.17913L536.562772,99.74463L539.901859,98.576082L546.688246,94.299489L556.705509,86.628774L565.586555,86.512404L560.755699,99.385823L563.623295,100.161622L564.867723,103.439374L576.384484,106.009209L584.090665,108.797237L590.297349,108.569346L591.26352,111.57072L594.432562,112.491981L595.80839,114.998782L594.811301,119.639032L597.694356,119.556603L596.990983,122.635556L598.931055,124.676878L601.025714,125.258728L601.350348,123.052548L603.460466,120.870613L604.867211,117.694685L609.319328,117.267995L616.391701,120.793033L613.184013,124.599298L611.197565,128.463748L608.353157,142.942102L607.649784,151.170423L608.051711,157.376817L611.081624,172.824919L600.623787,173.741332L575.874345,175.428696L561.938292,176.291772L560.446524,173.498895L555.901654,171.937599L554.232111,167.360383L553.9925,163.418353L555.120988,161.939486Z"></path>
  <path fill="rgb(46, 61, 157)" d="M760.165705,221.171759L758.519349,218.723143L759.48552,217.603082L761.665203,219.154681Z"></path>
</svg>
