<svg xmlns="http://www.w3.org/2000/svg" viewBox="0 0 335.6 159.8">
  <g>
    <path d="M44.2,159.8C19.9,159.8,0,144.3,0,114S22,66.6,47.5,66.6c10.2,0,18.9,1.7,24.6,4.1L66.8,87.4c-3.8-1.7-11.9-3.3-17.9-3.3-15.1,0-27.1,9.3-27.1,29.7S31.9,142.9,45,142.9a45.8,45.8,0,0,0,9-.9V123.2H42v-16H74.2v44.4C68.6,155.8,58.1,159.8,44.2,159.8Zm76-16.9c8.5,0,14.4-4.6,14.4-16.7V68.6H154v55.7c0,22.6-13.4,35.3-34.9,35.3s-35.3-11.9-35.3-35.3V68.6h21.3v57.6C105.2,138.6,111.4,142.9,120.2,142.9Zm45.9-74.3h21.3v89.2H166.1Zm33.4,0h29.6c22.9,0,43.9,15.2,43.8,45s-20.9,44.2-43.8,44.2H199.5Zm21.2,15.9v57.3h7.1c13.5,0,23.4-9,23.4-28.4s-9.9-28.8-23.4-28.8h-7.1Zm61.1-15.9h53.8V84.5H302.9v19.4h29.8v16H302.9v21.8h31.9v16h-53Z"/>
    <g>
      <rect x="83.7" width="207.9" height="57" fill="#27409d"/>
      <path d="M115,16.6h5.7l5.4,15.7,5.4-15.7h5l-8.7,23.9h-4.1Zm41,24.2c-5.9,0-11.6-4.2-11.5-12.2s5.7-12.5,11.5-12.5,11.6,4.6,11.6,12.5S161.9,40.8,156,40.8Zm0-4.6c3.3,0,5.9-2.5,5.9-7.7s-2.6-7.8-5.9-7.8-5.8,2.6-5.8,7.8S152.7,36.2,156,36.2Zm26.8-15.4h-6.2V16.6h18v4.2h-6.2V40.3h-5.6Zm22.8-4.2h14.3v4.2h-8.7V26h7.9v4.2h-7.9V36H220v4.2H205.6Zm26.6,0h9.4c4.2,0,7.6,2.5,7.6,7.3a6.9,6.9,0,0,1-4.5,6.5l5.6,9.8h-6l-5.2-9.1h-1.3v9.1h-5.6Zm5.7,4.2v6.8h2.7a3.2,3.2,0,0,0,3.3-3.1v-.4a3,3,0,0,0-2.7-3.3h-3.3Z" fill="#fff"/>
      <path d="M335.6,10.1v37a10.1,10.1,0,0,1-10.1,10.1h-37a10.1,10.1,0,0,1-10.1-10.1h0v-37A10.1,10.1,0,0,1,288.5,0h37a10.1,10.1,0,0,1,9.6,6.9A11.3,11.3,0,0,1,335.6,10.1Z" fill="#ff3555"/>
      <path d="M335.6,10.1v9.2l-24,24L293.2,24.9l6.5-6.5,11.9,11.9L335.1,6.8A12.6,12.6,0,0,1,335.6,10.1Z" fill="#27409d"/>
    </g>
  </g>
</svg>
