<?xml version="1.0" encoding="utf-8"?>
<!-- Generator: Adobe Illustrator 24.1.3, SVG Export Plug-In . SVG Version: 6.00 Build 0)  -->
<svg version="1.1" id="Layer_1" xmlns="http://www.w3.org/2000/svg" xmlns:xlink="http://www.w3.org/1999/xlink" x="0px" y="0px"
	 viewBox="0 0 359.1 45.2" style="enable-background:new 0 0 359.1 45.2;" xml:space="preserve">
<style type="text/css">
	.st0{fill:#27409D;}
	.st1{fill:#FF3555;}
</style>
<g>
	<g>
		<rect x="130.2" y="1.9" class="st0" width="21.1" height="9.1"/>
		<rect x="118.7" y="1.9" class="st1" width="9.2" height="9.1"/>
		<rect x="130.2" y="18.1" class="st0" width="16.9" height="9.1"/>
		<rect x="118.7" y="18.1" class="st1" width="9.2" height="9.1"/>
		<rect x="130.2" y="34.6" class="st0" width="21.4" height="9"/>
		<rect x="118.7" y="34.6" class="st1" width="9.2" height="8.9"/>
		<polygon class="st0" points="128,18.1 123,23.2 120.3,20.5 118.9,21.9 123,26 128,21 		"/>
	</g>
	<path d="M1.2,1.8H12l9.1,26.6l9-26.6h9.4L24.2,43.7h-7.7L1.2,1.8z M60.2,44.3c-10.4,0-20.4-7.4-20.4-21.5c0-13.9,10-21.9,20.4-21.9
		s20.5,8,20.5,21.9S70.7,44.3,60.2,44.3z M60.2,35.5c5.4,0,9.5-4.2,9.5-12.8s-4.1-13-9.5-13s-9.5,4.4-9.5,13S54.8,35.5,60.2,35.5z
		 M92.6,9.8H82.1v-8h31.8v8h-10.5v33.5H92.7L92.6,9.8L92.6,9.8z M156.4,1.8h17c7.5,0,13.6,4.3,13.6,13c0.1,5.1-3,9.6-7.7,11.5
		l9.5,17h-11.4l-8.8-15.6h-1.7v15.6h-10.7V1.8H156.4z M167.1,9.8V21h4.3c3.2,0,5.3-2.1,5.3-5.8s-2.1-5.4-5.3-5.4L167.1,9.8z
		 M217.7,44.3c-11,0-20.4-7.2-20.4-21.4s10.2-22,22.2-22c3.9-0.1,7.7,0.5,11.4,1.8l-2.6,8.4c-2.6-0.9-5.3-1.4-8.1-1.5
		c-6.7,0-12,4-12,13.2c0,8.7,4.4,13,9.9,13c1.2,0,2.4-0.1,3.6-0.3v-8h-5.2v-8h15.3v20.9C229.5,42.3,224.4,44.3,217.7,44.3z
		 M254.1,35.7c3.6,0,6.2-1.9,6.2-7.2V1.8h9.8v25.8c0,10.7-6.3,16.6-16.5,16.6c-10,0-16.5-5.4-16.5-16.6V1.8h10.7v26.7
		C247.7,34.1,250.5,35.7,254.1,35.7z M276,1.8h10.7v41.6H276V1.8z M293,1.8h14.3c10.7,0,20.4,7.1,20.4,21s-9.8,20.6-20.4,20.6H293
		V1.8z M303.7,9.8v25.5h2.9c5.9,0,10.2-4,10.2-12.7c0-8.5-4.2-12.8-10.2-12.8L303.7,9.8z M332.4,1.8h25.4v8h-14.7V18h13.3v8h-13.3
		v9.3H358v8h-25.6L332.4,1.8L332.4,1.8z"/>
</g>
</svg>
