<svg xmlns="http://www.w3.org/2000/svg" viewBox="0 0 293.67 50.24"><defs><style>.cls-1{fill:#231f20;}</style></defs><title>star-telegram</title><g id="Layer_2" data-name="Layer 2"><g id="ftw"><path class="cls-1" d="M293.67,40.49H280.21V36.27l3.41-.65V22.2c0-2.35-1.35-3.57-3.36-3.57a9.13,9.13,0,0,0-5.33,2v15l3.42.65v4.22H264.83V36.27l3.42-.65V22.26c0-2.66-1.62-3.63-3.42-3.63a8.9,8.9,0,0,0-5.27,2.07V35.62l3.37.65v4.22H249.51V36.27l3.37-.65V18.33l-3.37-.65V13.41H259v2.77h.1a11.37,11.37,0,0,1,7.48-3.07c3.82,0,5.53,1.31,6.48,2.92a13.92,13.92,0,0,1,9-3c5,0,8.19,3.22,8.19,7.94V35.62l3.41.65v4.22"/><path class="cls-1" d="M224.69,14.07l-1,5.78a9.63,9.63,0,0,0-3.61-.91c-2.67,0-5.13,2.66-5.13,6.18v10.5l3.77.65v4.22H204.79V36.27l3.47-.65V18.33l-3.47-.65V13.41h9.75v3.22h.1a7.11,7.11,0,0,1,6.13-3.47,9.76,9.76,0,0,1,3.92.91"/><polygon class="cls-1" points="151.79 40.49 138.32 40.49 138.32 36.27 141.69 35.62 141.69 5.57 138.32 4.92 138.32 0.65 148.42 0.65 148.42 35.62 151.79 36.27 151.79 40.49"/><polygon class="cls-1" points="121.74 12.91 117.17 12.91 115.76 6.63 109.58 6.63 109.58 34.87 113.8 35.47 113.8 40.49 96.97 40.49 96.97 35.47 101.39 34.87 101.39 6.63 95.01 6.63 93.8 12.91 89.18 12.91 89.18 0.7 121.74 0.7 121.74 12.91"/><rect class="cls-1" x="83.81" y="23.56" width="10.55" height="5.18"/><path class="cls-1" d="M85.92,14.07l-1,5.78a9.63,9.63,0,0,0-3.61-.91c-2.67,0-5.13,2.66-5.13,6.18v10.5l3.77.65v4.22H66V36.27l3.47-.65V18.33L66,17.68V13.41h9.75v3.22h.1A7.08,7.08,0,0,1,82,13.16a9.8,9.8,0,0,1,3.92.91"/><path class="cls-1" d="M40.35,39.59a14.21,14.21,0,0,1-6,1.16c-4.43,0-6.88-3-6.88-7.24V18.33H24.67V13.41h2.86L30,6.48h4.22v6.93h4.88v4.92H34.21V33a2.13,2.13,0,0,0,2.22,2.36A4.86,4.86,0,0,0,39,34.57l1.31,5"/><path class="cls-1" d="M25.27,30.25C25.27,36.74,20.1,41,12.66,41A42.34,42.34,0,0,1,0,38.84V28.33H4.72L6.08,34a13,13,0,0,0,5.83,1.35c3.56,0,5.68-1.76,5.68-4.92,0-2.37-1-3.89-5-6.44L7.23,20.6C3.22,18.06.1,14.82.1,10.1.1,3.33,5.39,0,12.51,0A40.11,40.11,0,0,1,23.26,1.91V12.06H18.69L17.33,6.83a8.68,8.68,0,0,0-4.72-1.15c-3.06,0-4.72,1.65-4.72,3.76s1.52,3.3,4.32,5l5.22,3.21c5.29,3.26,7.84,7.14,7.84,12.57"/><path class="cls-1" d="M238,34.72V28a12,12,0,0,0-3.56-.6,3.92,3.92,0,0,0-4.28,4.22c0,2.92,2,3.92,4.12,3.92a8.36,8.36,0,0,0,3.72-.85m10.05,5.77h-9.59L238.31,39h-.11A11.48,11.48,0,0,1,232,40.79a8.59,8.59,0,0,1-8.64-9c0-5.69,4.78-9,9.75-9a18.32,18.32,0,0,1,4.92.65V21.8c0-2-1.25-3.36-4.12-3.36a11.44,11.44,0,0,0-6,2.06L226.55,15a16,16,0,0,1,8.34-2c5.62,0,9.75,3.18,9.75,8.24V35.62l3.41.65Z"/><path class="cls-1" d="M193.39,33.41v-13a6.46,6.46,0,0,0-5.13-2.06c-3,0-5.12,2.83-5.12,8.49,0,5.5,1.91,8.49,5.27,8.49a7.81,7.81,0,0,0,5-2m10.05-15.73-3.37.65V39.89c0,6.94-5.62,10.35-12.71,10.35a21,21,0,0,1-9.5-2l1.66-6.08a15.57,15.57,0,0,0,7.39,2.41c4.87,0,6.48-1.9,6.48-4.26V38.94a8.68,8.68,0,0,1-5.53,1.85c-7.54,0-11.86-5.36-11.86-14C176,19.54,179.89,13,187.31,13a9.59,9.59,0,0,1,6.63,2.26h.1V13.41h9.4Z"/><path class="cls-1" d="M167.82,23.36c-.11-2.81-1.61-5-4.23-5a5,5,0,0,0-4.87,5h9.1m6.93,1.86c0,1.36-.05,2.71-.1,3.57H158.72c.11,3.58,2.28,6.58,6.43,6.58a10.53,10.53,0,0,0,7-2.41l1.41,5.53a14.64,14.64,0,0,1-8.69,2.36c-9,0-13.32-5.39-13.32-13.87s4.4-14,12.06-14c7.84,0,11.16,5.62,11.16,12.25"/><path class="cls-1" d="M130.84,23.36c-.11-2.81-1.61-5-4.23-5a5.06,5.06,0,0,0-4.87,5h9.1m6.93,1.86c0,1.36-.05,2.71-.1,3.57H121.74c.11,3.58,2.28,6.58,6.43,6.58a10.58,10.58,0,0,0,7-2.41l1.4,5.53a14.62,14.62,0,0,1-8.69,2.36c-9,0-13.32-5.39-13.32-13.87s4.4-14,12.06-14c7.84,0,11.16,5.62,11.16,12.25"/><path class="cls-1" d="M54.51,34.72V28a12,12,0,0,0-3.56-.6,3.93,3.93,0,0,0-4.28,4.22c0,2.92,2,3.92,4.13,3.92a8.35,8.35,0,0,0,3.71-.85m10.05,5.77H55L54.82,39h-.1a11.51,11.51,0,0,1-6.23,1.75,8.59,8.59,0,0,1-8.65-9c0-5.69,4.78-9,9.75-9a18.32,18.32,0,0,1,4.92.65V21.8c0-2-1.25-3.36-4.12-3.36a11.44,11.44,0,0,0-6,2.06L43.06,15a16,16,0,0,1,8.34-2c5.62,0,9.75,3.18,9.75,8.24V35.62l3.41.65Z"/></g></g></svg>