<svg xmlns="http://www.w3.org/2000/svg" viewBox="0 0 75 20.1"><title>lexgo</title><polygon points="0 0.4 3.8 0.4 3.8 13.4 11 13.4 11 16.6 0 16.6 0 0.4" style="fill:#db8200"/><polygon points="24 9.8 16.5 9.8 16.5 13.5 24 13.5 24 16.6 12.7 16.6 12.7 0.4 24 0.4 24 3.5 16.5 3.5 16.5 6.7 24 6.7 24 9.8" style="fill:#db8200"/><path d="M30.3,8.6l.9,1.4.8,1.4h.1a4.6,4.6,0,0,1,.7-1.4c-.3-.6-.6-1.3-1-2L30.6,5.4H25.1l2,3.2Z" transform="translate(-2 -1.9)" style="fill:#db8200"/><path d="M32.5,16.9c-.2-.4-.5-.9-.7-1.4h0L31,16.9l-.8,1.6H27.1L24.9,22h5.5l1.3-2.8a13.6,13.6,0,0,1,1-2.1Z" transform="translate(-2 -1.9)" style="fill:#db8200"/><path d="M35.9,13.4l5-8H35.4L34.2,8l-.2.6h3.7l-3.5,4.6,3.5,5.2H34l.4.8L35.7,22h5.5Z" transform="translate(-2 -1.9)" style="fill:#db8200"/><path d="M54.2,17.6a19.7,19.7,0,0,1-5.9,1,9,9,0,0,1-5.9-1.8,6.7,6.7,0,0,1-2.3-5.3,8.8,8.8,0,0,1,3.4-7,12.7,12.7,0,0,1,7.8-2.4,13.1,13.1,0,0,1,4.8.8l-1,3a11.2,11.2,0,0,0-4-.7,7.3,7.3,0,0,0-4.6,1.3,5.9,5.9,0,0,0-2.4,4.7c0,3,1.9,4.4,4.9,4.4l2.1-.3.6-3.2H48.8l.6-2.9h6.4Z" transform="translate(-2 -1.9)" style="fill:#db8200"/><path d="M64.1,18.7c-4.4,0-7.4-2.8-7.4-7.2a9.4,9.4,0,0,1,2.9-6.9A9.7,9.7,0,0,1,66.3,2c4.5,0,7.4,2.8,7.4,7.3a9.5,9.5,0,0,1-2.8,6.8,8.9,8.9,0,0,1-6.7,2.6Zm.6-3a4.3,4.3,0,0,0,3.2-1.4,6.6,6.6,0,0,0,1.9-4.8c0-2.4-.9-4.6-3.9-4.6a5.3,5.3,0,0,0-3.4,1.5,7.1,7.1,0,0,0-1.9,4.8c0,2.8,1.3,4.5,4,4.5Z" transform="translate(-2 -1.9)" style="fill:#db8200"/><polygon points="16.5 13.5 16.5 9.8 24 9.8 24 6.7 27.6 11.5 24 16.6 24 13.5 16.5 13.5" style="fill:none"/><polyline points="23.7 16.4 27.2 11.4 23.8 6.9" style="fill:none;stroke:#db8200;stroke-miterlimit:10;stroke-width:0.6499999761581421px"/><path d="M77,3.5a1.6,1.6,0,0,1-3.2,0,1.6,1.6,0,1,1,3.2,0Zm-2.8,0a1.2,1.2,0,0,0,2.4,0,1.2,1.2,0,1,0-2.4,0Zm1,.8h-.4V2.7h1.1c.1,0,.2.2.2.3s-.1.3-.3.4h0a.5.5,0,0,1,.2.4c.1.2.1.3.2.4h-.4c-.1-.1-.1-.2-.1-.4s-.2-.3-.4-.3h-.1Zm0-.9h.1c.2,0,.4-.1.4-.2a.3.3,0,0,0-.3-.3h-.2Z" transform="translate(-2 -1.9)" style="fill:#db8200"/></svg>