<svg xmlns="http://www.w3.org/2000/svg" xmlns:xlink="http://www.w3.org/1999/xlink" viewBox="0 0 673.6 512">
  <defs>
    <clipPath id="clip-path">
      <rect x="53.1" width="512" height="512" fill="none"/>
    </clipPath>
  </defs>
  <title>tri-city-herald</title>
  <g id="Layer_2" data-name="Layer 2">
    <g id="Art">
      <g clip-path="url(#clip-path)">
        <rect x="53.1" width="512" height="512" fill="#2757a2"/>
        <polygon points="344.9 390.1 345.7 60.3 346.1 44.6 354.1 41.2 360.4 44.9 369.9 386.7 357.1 390.1 344.9 390.1" fill="#3f6cb3"/>
        <path d="M346.5,44.8,33.3,200.5" fill="none" stroke="#5680c0" stroke-miterlimit="2" stroke-width="1.02"/>
        <path d="M314,315.4,346.2,45" fill="none" stroke="#5680c0" stroke-miterlimit="2" stroke-width="1.02"/>
        <line x1="271.2" y1="315.3" x2="345.9" y2="46.5" fill="none" stroke="#5680c0" stroke-miterlimit="2" stroke-width="1.02"/>
        <line x1="345.9" y1="46.4" x2="239.2" y2="320.8" fill="none" stroke="#5680c0" stroke-miterlimit="2" stroke-width="1.02"/>
        <line x1="346" y1="46.5" x2="202.2" y2="325.1" fill="none" stroke="#5680c0" stroke-miterlimit="2" stroke-width="1.02"/>
        <line x1="346" y1="46.5" x2="164.4" y2="325.1" fill="none" stroke="#5680c0" stroke-miterlimit="2" stroke-width="1.02"/>
        <line x1="346" y1="45.9" x2="126.1" y2="327.4" fill="none" stroke="#5680c0" stroke-miterlimit="2" stroke-width="1.02"/>
        <line x1="360" y1="45.1" x2="597.6" y2="186.2" fill="none" stroke="#5680c0" stroke-miterlimit="2" stroke-width="1.02"/>
        <path d="M360,45.5c-.1-.2,28.9,272.5,28.9,272.5" fill="none" stroke="#5680c0" stroke-miterlimit="2" stroke-width="1.02"/>
        <line x1="360.1" y1="45.8" x2="418.7" y2="315.6" fill="none" stroke="#5680c0" stroke-miterlimit="2" stroke-width="1.02"/>
        <line x1="360.1" y1="45.7" x2="430.6" y2="264.1" fill="none" stroke="#5680c0" stroke-miterlimit="2" stroke-width="1.02"/>
        <line x1="360.1" y1="45.7" x2="478.8" y2="315.5" fill="none" stroke="#5680c0" stroke-miterlimit="2" stroke-width="1.02"/>
        <line x1="360.1" y1="45.7" x2="505.8" y2="310.4" fill="none" stroke="#5680c0" stroke-miterlimit="2" stroke-width="1.02"/>
        <line x1="360.1" y1="45.7" x2="533.4" y2="310.4" fill="none" stroke="#5680c0" stroke-miterlimit="2" stroke-width="1.02"/>
        <line x1="360.1" y1="45.7" x2="567.8" y2="310.4" fill="none" stroke="#5680c0" stroke-miterlimit="2" stroke-width="1.02"/>
        <line x1="360.1" y1="45.7" x2="581" y2="295.6" fill="none" stroke="#5680c0" stroke-miterlimit="2" stroke-width="1.02"/>
        <line x1="360.1" y1="45.8" x2="588.6" y2="278.6" fill="none" stroke="#5680c0" stroke-miterlimit="2" stroke-width="1.02"/>
        <line x1="360.1" y1="45.8" x2="581" y2="251.1" fill="none" stroke="#5680c0" stroke-miterlimit="2" stroke-width="1.02"/>
        <line x1="360.1" y1="45.8" x2="581" y2="234" fill="none" stroke="#5680c0" stroke-miterlimit="2" stroke-width="1.02"/>
        <line x1="360.1" y1="45.8" x2="585.2" y2="223.8" fill="none" stroke="#5680c0" stroke-miterlimit="2" stroke-width="1.02"/>
        <line x1="360.1" y1="45.8" x2="588.6" y2="214" fill="none" stroke="#5680c0" stroke-miterlimit="2" stroke-width="1.02"/>
        <line x1="360.1" y1="45.8" x2="585.2" y2="200.7" fill="none" stroke="#5680c0" stroke-miterlimit="2" stroke-width="1.02"/>
        <line x1="360.2" y1="45.5" x2="597.6" y2="198.3" fill="none" stroke="#5680c0" stroke-miterlimit="2" stroke-width="1.02"/>
        <line x1="346" y1="45.9" x2="86.8" y2="327.4" fill="none" stroke="#5680c0" stroke-miterlimit="2" stroke-width="1.02"/>
        <line x1="346" y1="46" x2="49" y2="325.6" fill="none" stroke="#5680c0" stroke-miterlimit="2" stroke-width="1.02"/>
        <line x1="346" y1="45.9" x2="18" y2="318.3" fill="none" stroke="#5680c0" stroke-miterlimit="2" stroke-width="1.02"/>
        <line x1="346.2" y1="45.6" x2="10.8" y2="297.8" fill="none" stroke="#5680c0" stroke-miterlimit="2" stroke-width="1.02"/>
        <line x1="346.1" y1="45.4" x2="3.6" y2="278.9" fill="none" stroke="#5680c0" stroke-miterlimit="2" stroke-width="1.02"/>
        <line x1="346.1" y1="45.4" x2="0.3" y2="262.2" fill="none" stroke="#5680c0" stroke-miterlimit="2" stroke-width="1.02"/>
        <line x1="346.1" y1="45.1" x2="8.2" y2="238.5" fill="none" stroke="#5680c0" stroke-miterlimit="2" stroke-width="1.02"/>
        <polygon points="422.1 52.7 423.3 65.8 359.7 78.2 359.2 67.8 422.1 52.7" fill="#3f6cb3"/>
        <line x1="421.8" y1="28.8" x2="13.9" y2="230.5" fill="none" stroke="#5680c0" stroke-miterlimit="2" stroke-width="1.02"/>
        <line x1="388.6" y1="312.9" x2="421.8" y2="28.8" fill="none" stroke="#5680c0" stroke-miterlimit="2" stroke-width="1.02"/>
        <line x1="341.8" y1="316.6" x2="421.8" y2="29.9" fill="none" stroke="#5680c0" stroke-miterlimit="2" stroke-width="1.02"/>
        <line x1="421.8" y1="29.9" x2="310.5" y2="315.6" fill="none" stroke="#5680c0" stroke-miterlimit="2" stroke-width="1.02"/>
        <line x1="421.8" y1="29.9" x2="273.9" y2="316.5" fill="none" stroke="#5680c0" stroke-miterlimit="2" stroke-width="1.02"/>
        <line x1="421.8" y1="29.9" x2="234.4" y2="317.5" fill="none" stroke="#5680c0" stroke-miterlimit="2" stroke-width="1.02"/>
        <line x1="421.8" y1="28.8" x2="193.6" y2="321" fill="none" stroke="#5680c0" stroke-miterlimit="2" stroke-width="1.02"/>
        <line x1="435.8" y1="28.8" x2="673.4" y2="169.1" fill="none" stroke="#5680c0" stroke-miterlimit="2" stroke-width="1.02"/>
        <line x1="435.8" y1="28.8" x2="465.7" y2="309.8" fill="none" stroke="#5680c0" stroke-miterlimit="2" stroke-width="1.02"/>
        <line x1="435.8" y1="28.8" x2="496.6" y2="308.5" fill="none" stroke="#5680c0" stroke-miterlimit="2" stroke-width="1.02"/>
        <line x1="435.8" y1="28.8" x2="525.9" y2="307.9" fill="none" stroke="#5680c0" stroke-miterlimit="2" stroke-width="1.02"/>
        <line x1="435.8" y1="28.8" x2="559" y2="308.5" fill="none" stroke="#5680c0" stroke-miterlimit="2" stroke-width="1.02"/>
        <line x1="435.8" y1="28.8" x2="581.6" y2="293.5" fill="none" stroke="#5680c0" stroke-miterlimit="2" stroke-width="1.02"/>
        <line x1="435.8" y1="28.8" x2="609.2" y2="293.5" fill="none" stroke="#5680c0" stroke-miterlimit="2" stroke-width="1.02"/>
        <line x1="435.8" y1="28.8" x2="643.6" y2="293.5" fill="none" stroke="#5680c0" stroke-miterlimit="2" stroke-width="1.02"/>
        <line x1="435.8" y1="28.8" x2="656.8" y2="278.6" fill="none" stroke="#5680c0" stroke-miterlimit="2" stroke-width="1.02"/>
        <line x1="435.8" y1="28.8" x2="664.4" y2="261.6" fill="none" stroke="#5680c0" stroke-miterlimit="2" stroke-width="1.02"/>
        <line x1="435.8" y1="28.8" x2="656.8" y2="234" fill="none" stroke="#5680c0" stroke-miterlimit="2" stroke-width="1.02"/>
        <line x1="435.8" y1="28.8" x2="656.8" y2="217" fill="none" stroke="#5680c0" stroke-miterlimit="2" stroke-width="1.02"/>
        <line x1="435.8" y1="28.8" x2="661" y2="206.8" fill="none" stroke="#5680c0" stroke-miterlimit="2" stroke-width="1.02"/>
        <line x1="435.8" y1="28.8" x2="664.4" y2="197.1" fill="none" stroke="#5680c0" stroke-miterlimit="2" stroke-width="1.02"/>
        <line x1="435.8" y1="28.8" x2="661" y2="183.7" fill="none" stroke="#5680c0" stroke-miterlimit="2" stroke-width="1.02"/>
        <line x1="435.8" y1="28.8" x2="673.4" y2="181.3" fill="none" stroke="#5680c0" stroke-miterlimit="2" stroke-width="1.02"/>
        <line x1="421.8" y1="28.8" x2="150.9" y2="323.5" fill="none" stroke="#5680c0" stroke-miterlimit="2" stroke-width="1.02"/>
        <line x1="421.8" y1="28.8" x2="107.2" y2="325.1" fill="none" stroke="#5680c0" stroke-miterlimit="2" stroke-width="1.02"/>
        <line x1="421.8" y1="28.8" x2="64.2" y2="325.4" fill="none" stroke="#5680c0" stroke-miterlimit="2" stroke-width="1.02"/>
        <line x1="421.8" y1="28.8" x2="33.3" y2="321" fill="none" stroke="#5680c0" stroke-miterlimit="2" stroke-width="1.02"/>
        <line x1="421.8" y1="28.8" x2="31.7" y2="294.5" fill="none" stroke="#5680c0" stroke-miterlimit="2" stroke-width="1.02"/>
        <line x1="421.8" y1="28.8" x2="26.6" y2="275.4" fill="none" stroke="#5680c0" stroke-miterlimit="2" stroke-width="1.02"/>
        <line x1="421.8" y1="28.8" x2="21.2" y2="257.6" fill="none" stroke="#5680c0" stroke-miterlimit="2" stroke-width="1.02"/>
        <polygon points="425.5 386.4 420.9 29.1 429.8 24.9 436.6 27.8 452.3 386.4 439.7 388 425.5 386.4" fill="#3f6cb3"/>
        <polygon points="40.1 320.4 584 305.1 584 316.6 40.1 333.8 40.1 320.4" fill="#3f6cb3"/>
        <g>
          <path d="M203.1,353.4c-1.8,3.3-5.7,6.4-9.1,8.1-8.4,5.3-17.8-6.6-25.1,1.4-1.1-2.2.6-5.7,2.3-7.6s6.4-4.7,9.3-5.7c9.2-1.1,13.5,6.3,22.6,3.8Z" fill="#fff"/>
          <path d="M400.6,426.1c3.5-.2,7.9,5,10.8,4.3l-9.9,12.2c-4.2-3.7-10.3-9.8-18.7-6.3,0-2.6,2.3-7.4,6-8.9,0,0,.1-60.2,0-64.1s-1.5-6.6-1.6-7.1a146.3,146.3,0,0,0,15.3-7.8s-1.9,6.4-1.9,9.8v67.9Z" fill="#fff"/>
          <path d="M199,300.7a118.9,118.9,0,0,0,7-9.8l1,.9c-3,12.5-11.8,26.2-25.2,29.8-9.9,2.3-20.5.5-27.6-6.6-11.7-10.8-13.4-29-7.9-43.1,2.5-6.8,7.6-16.3,15.1-22.6.8.4.8.7,1.4,1.1-8.6,11.2-11.4,28.9-5.6,42.3,3.4,7.2,10.2,14.7,18.3,15.8s18.5-1.1,23.5-7.8Z" fill="#fff"/>
          <path d="M424.4,263.6a35.9,35.9,0,0,0,10-1.2L432,273.3a10.5,10.5,0,0,0-2.5-.1h-5.1v32.9c2.7.3,6.9,2.9,8.1,3.6a5.5,5.5,0,0,0,2.7.6l-9.8,12.1c-5.2-4.5-9.7-9.6-18.8-6.3a10.2,10.2,0,0,1,6.1-9V273.3h-6.3a20.5,20.5,0,0,0-3.2.6l3.2-10.5h6.3c.1-4.4.2-11.2-.6-15,5-2.3,8.9-4,13.3-7.2-.3,2.5-1,7.2-1,9.5s.1,9.3,0,12.7Z" fill="#fff"/>
          <path d="M270.1,246.2c1.2,0,2.2-.9,3.2-1.1.4,3.9-3.8,7.5-7.4,9.1s-7.1-1.4-10-3.6a5.5,5.5,0,0,0-1.6-1l-1.3-.4,10.1-7.8c1.6,2.3,4.1,4.7,7,4.8Z" fill="#fff"/>
          <path d="M186,289.2a17.8,17.8,0,0,1-12.8,15.4,9.2,9.2,0,0,0,1.2-4.5c-.1-12.4,0-28-.1-40-.3-1.5-.6-2-2-3.5l13.7-9v41.6Z" fill="#fff"/>
          <path d="M270.4,265.3c2,0,2.6,0,4.3-1.1a10.4,10.4,0,0,1-5.8,9.1c.1,11.6,0,22.7,0,33.8.1,1.2,2.5,3.3,5.2,3.3l2.8-.3c-2.1,3-8.8,11-9.2,11.5s-2.6.3-4.7-.9c-4.2-2.6-5.8-7.4-5.8-12.1-.1-10.6.1-22.4,0-34.3-1.2-1-2.8-2.9-4.3-3.3a4.7,4.7,0,0,0-1.7-.4c3.6-3.7,7.6-7.4,11.5-11.7,1.7,2.3,4.2,6.4,7.7,6.4Z" fill="#fff"/>
          <path d="M302.9,294h-9.7c-.8,0-7.7-.3-11,.6l3.7-12h9.7c-.3,0,6.7.1,9.9-.9-.9,4.4-1.7,7.7-2.6,12.4Z" fill="#fff"/>
          <path d="M241.7,264.9c2,.6,3.5-.5,5.1-1.3a13.3,13.3,0,0,1-2.3,9.3,9,9,0,0,1-7.1,3.4c-2.8-.2-4.9-1.9-6.9-3.9l-4.7,5.2c.1,5.8,0,19.1.1,28.3,2.3-.1,4.5,1.9,8.2,3.8a4.7,4.7,0,0,0,2.7.5l-9.9,12.2c-3.8-3.1-8.1-7.6-13-7.4s-5.8,1.3-5.8,1.3c-.1-3.5,2.7-8,6-9.2v-32c0-2.9-5.7-4.3-5.7-4.3a45.7,45.7,0,0,0,9-12.5c5.8,1.3,7.1,8.4,8.5,13.5A56.7,56.7,0,0,0,236.2,258c1.2,2.8,1.6,6.1,5.5,6.9Z" fill="#fff"/>
          <path d="M194.5,245.9c-13.9,1.5-28.3-1.7-42.3-2.6-3.7-.3-6.3,1.8-9,4.4a20.1,20.1,0,0,1,11.3-14.9c16.5-3.8,33.1,3.6,50,1.7a3.8,3.8,0,0,0,2.6-1.7l1,1c-.4,3.8-10.4,11.7-13.6,12.1Z" fill="#fff"/>
          <path d="M284.3,430.1c-4.6-3.6-10.1-3.8-14.5-4V413.9c8.3-5.9,14-10.1,21-15.3-4-6.7-7.1-13.8-10.3-20.8-7.3,5.3-15.4,8.8-24.9,8.9,0,0,2.5,2.8,2.5,4.5v36.1a10.4,10.4,0,0,0-6,8.9c9.7-2,19.4,1.4,26.9,6.5l10.4-14.5-1.8-1.8Zm-13.5-43.3,1-.2,7.1,14.1c-2.8,2.2-5.8,4.5-9,6.6V387.4A2.4,2.4,0,0,1,270.8,386.8Z" fill="#fff"/>
          <path d="M327.7,384.9c2,.6,3.5-.5,5.1-1.3a12.9,12.9,0,0,1-2.4,9.3,8.4,8.4,0,0,1-7,3.4c-2.8-.2-4.9-1.9-6.9-3.9l-4.6,5.1c-.2,10.9.1,19.2,0,28.4,2.4-.1,4.4,1.9,8.2,3.9a5.2,5.2,0,0,0,2.7.4l-10,12.2c-3.7-3.1-8-7.6-12.9-7.4s-5.9,1.3-5.9,1.3c-.1-3.5,2.9-8,6.3-9.2l-.2-32c.1-2.9-5.6-4.3-5.6-4.3a144.1,144.1,0,0,0,9-12.5c5.8,1.3,7.1,8.5,8.5,13.5A56.7,56.7,0,0,0,322.2,378c1.2,2.8,1.6,6.1,5.5,6.9Z" fill="#fff"/>
          <path d="M214,430.5c-4.4,5.5-5.3,6.5-9.9,12-2.8-2.2-6.1-3.2-8.4-4.6s-13.1-2.4-20.4,1.4c-.5.2-1.6,1.2-2,1.4s-1-.8-1-1c0-2.2,9.5-12.2,19.3-14V398.1c-6.3,0-7.9,4.3-7.9,4.3s-3.1-7.6,2.7-13.1c3.5-3.4,5.1-3.1,5.1-3.1V377c0-14,12.5-16.4,12.5-16.4s-.7,6.2-.7,7.7v17.9h24.9V364.4c-3.8-3.7-4.2-3.2-5.8-3.6l13.1-11.5c3.2,3.8,3,8.3,9.9,5.1.6,2.5-2.2,7.7-5.5,9.1v62.6c1.5-.2,3.5,1,5.2,2.2s3.6,2.4,5.6,2c-3.7,4.3-6.1,7.5-9.9,12.3,0,0-5.4-5.2-9.8-7s-9,.7-9,.7a12.5,12.5,0,0,1,1.9-5.5,11.3,11.3,0,0,1,4.3-3.5V398H203.3v27.9a5.9,5.9,0,0,1,2.4.8,63.4,63.4,0,0,0,6.2,3.4,5.7,5.7,0,0,0,2.1.4Z" fill="#fff"/>
          <path d="M469.5,321.3v6.6c-.1,1.1-1.7,2.8-2.7,3.6s-3.4,2.3-4,2.1-6.6-2.3-12.3-3.8-10.5,3.3-12.8,7.1-1.1,6.1-1.1,6.1a8.7,8.7,0,0,1,7.4-2.8c1.4.2,10,2.6,10,2.6,4.1,1.2,7.7-.9,8.9-1.7l15.5-11.4a5.7,5.7,0,0,1,3.9-1.2c-.6-.6-1.3-4-1.4-5.2V273.1c5.1-2.6,5.9-9.2,5.9-9.2a7.4,7.4,0,0,1-6.5.7c-2.1-.9-5.8-6-5.8-6s-11.3,11.6-11.3,11.6c2,.3,5.9,3.6,5.9,3.6v36.7l-3.8,1.5-.7-.6a41.8,41.8,0,0,0-6.7-4.7,10.1,10.1,0,0,0-3.1-.7s.1-18.1,0-31.9-8.2-15.1-8.2-15.1-7.6,11-8.4,11.6,4.9.8,4.9,4.6v32a10.1,10.1,0,0,0-6.2,9.2s6.3-3.1,11.6,0,10.1,6.2,10.1,6.2,9-6,10.8-6.7v5.4Z" fill="#fff"/>
          <path d="M395.5,246.3c1.2,0,2.2-.9,3.2-1.2.4,4-3.8,7.6-7.4,9.1s-7.1-1.3-10-3.6a5.7,5.7,0,0,0-1.6-.9l-1.3-.4,10.1-7.8c1.6,2.2,4.1,4.6,7,4.8Z" fill="#fff"/>
          <path d="M395.8,265.4c2,0,2.6,0,4.3-1.1a10.3,10.3,0,0,1-5.7,9.1c0,11.6-.1,22.7-.1,33.7.1,1.3,2.5,3.4,5.3,3.4l2.7-.3c-2.1,2.9-8.8,11-9.2,11.5s-2.6.3-4.7-.9c-4.2-2.6-5.8-7.5-5.8-12.1-.1-10.6.2-22.4,0-34.4-1.2-.9-2.8-2.8-4.3-3.3l-1.7-.3c3.6-3.7,7.6-7.4,11.5-11.7,1.7,2.2,4.2,6.4,7.7,6.4Z" fill="#fff"/>
          <path d="M339.9,233.3c.9-.5,2-.8,2.9-1.2,15.2-1.7,13.8,4.6,29.2,4.8a3.9,3.9,0,0,0,2.5-1.3,9.7,9.7,0,0,1,.9,1.7c-.9,3.8-10.7,9.7-13.6,9.7-12.7-.2-9.7-2.1-22.2-4.8a8.3,8.3,0,0,0-5.3,1,10.6,10.6,0,0,0-3.9,3.6c-5.2,9.7-6.1,21.1-5,33.2s7.7,23.1,19,27c4.5,1.7,17.4,2.4,21-.3s8.1-5.7,11.2-10.5l1,.9a21.7,21.7,0,0,1-1.6,3.7c-4.7,9.9-14.2,19.6-24.3,21.3s-20.7-2.5-28-11.5c-11-12.3-12.7-33.2-7.2-49.2,4-12.2,12.4-23,23.4-28.1Z" fill="#fff"/>
          <path d="M456,427.1c0-1,0-16.9-.1-33.9a10.4,10.4,0,0,0,5.8-9.1c-1.6,1.5-5.8,1.1-5.8,1,0-11.1,0-25-.1-27.2a33.6,33.6,0,0,1,1.9-9.7,113.6,113.6,0,0,1-15.2,7.7c1.2,3.9,1.9,4.1,1.8,9.7v14.8a7.4,7.4,0,0,1-3.5-2.3c-2,1.5-6.2,4.8-8.4,5.6-6.9,2.4-10.4,3.5-16.5,3.2,0,0,2.4,2.9,2.4,4.9v35.1c-2.8,1.7-5.8,3.5-6.3,9.1a10.9,10.9,0,0,1,3.6-1c4.2-.8,7.9.7,11.1,2.9s4.5,2.9,7.1,4.5l3.8-3.7a15.6,15.6,0,0,1,4.8-2.7l2.9-.8a10.5,10.5,0,0,0,3.2,4.4c2.7,2.1,5.3,2.7,6.2,2s8-9.8,9-11.5C460.8,431.1,456,429.1,456,427.1Zm-22-.4a15.6,15.6,0,0,0-4-1v-36l1.7-1.5a5.4,5.4,0,0,1,1.9.3c.6.3,3.4,3.4,5.5,4.6a16.9,16.9,0,0,0,5.1,1.4v36.3C440.7,434.9,439,429.1,434,426.7Z" fill="#fff"/>
          <path d="M362.6,427.5V394.6a4.7,4.7,0,0,1-1.6-1.1l-2.9-2.8s-4.2,4.6-10.3,4.9-10.4-4-11.9-5.9c0,0,8.8-6.7,13.2-10.3,0,0,3.2,8.4,6.4,8.5s6.6-.4,12.3-8.9c0,0,4.5,6,7.2,6.1s4.7-.6,5-.9a10.7,10.7,0,0,1-5.7,9v34.1c0,1,3.6,4,7.7,2.8l-9,11.6a5.4,5.4,0,0,1-3-.4c-2.5-.8-5.7-3.3-7.1-8.8l-8.1,9a2.4,2.4,0,0,1-1.1.6c-4.1,0-12.5-3.5-15-7.4s-8.2-13.8,7.2-24.4c7.5-5.2,8.9-5.6,13.7-6.9l.6,1.7s-11.1,6-12.7,13,4.4,12.3,8.3,11.9a13.6,13.6,0,0,0,6.8-2.5Z" fill="#fff"/>
        </g>
      </g>
    </g>
  </g>
</svg>
